<?xml version="1.0" ?><!DOCTYPE svg  PUBLIC '-//W3C//DTD SVG 1.1//EN'  'http://www.w3.org/Graphics/SVG/1.1/DTD/svg11.dtd'><svg enable-background="new 0 0 512 512" height="512px" id="Layer_1" version="1.1" viewBox="0 0 512 512" width="512px" xml:space="preserve" xmlns="http://www.w3.org/2000/svg" xmlns:xlink="http://www.w3.org/1999/xlink"><path d="M448.281,442.07c-16.272,2.607-32.173,7.01-48.229,10.589c-7.188,1.611-14.652,2.12-21.902,3.485  c-4.241,0.81-8.652,2.298-13.048,2.914c1.342-0.432,2.545-0.81,3.393-1.117c5.63-2.168,11.476-3.633,17.26-5.353  c9.485-2.822,19.479-4.219,27.886-9.816c2.313-1.543,1.727-6.085-1.559-5.745c-9.47,0.986-19.155,2.274-28.549,3.91  c-10.549,1.826-20.806,5.027-31.34,6.932c-1.389,0.263-2.792,0.518-4.195,0.772c6.524-1.852,13.063-3.749,19.448-6.032  c3.193-1.14,8.869-2.605,8.128-7.017c-0.215-1.312-1.711-2.299-2.96-2.268c-10.551,0.301-20.884,3.354-31.279,4.905  c-5.29,0.786-10.58,1.511-15.871,2.306c1.281-0.671,2.36-1.496,2.931-2.568c0.987-1.851-0.2-4.92-2.668-4.643  c-22.241,2.538-44.157,6.833-66.013,11.444c2.792-1.318,5.43-2.922,7.742-4.936c2.083-1.812,0.386-5.29-2.175-5.275  c-10.225,0.07-20.605,2.198-30.799,3.309c-11.599,1.257-23.105,3.225-34.519,5.652c-3.979,0.841-7.973,1.613-11.968,2.36  c4.258-1.303,8.499-2.638,12.724-4.025c3.826-1.265,2.237-6.64-1.649-5.953c-8.762,1.557-17.737,1.997-26.545,3.4  c-9.376,1.488-18.493,4.365-27.731,6.47c-2.544,0.578-5.074,1.15-7.619,1.72c6.339-2.081,12.616-4.295,18.631-7.187  c2.776-1.327,1.436-5.9-1.557-5.746c-6.201,0.317-12.062,2.484-18.076,3.81c-6.618,1.45-13.157,2.793-19.682,4.474  c0.186-1.666-0.786-3.44-2.946-3.347c-8.159,0.347-16.904,3.008-24.615,5.575c-6.787,2.252-15.039,3.154-20.745,7.666  c-1.789,1.411-0.771,4.727,1.357,5.158c4.381,0.872,8.545-0.655,12.74-1.82c7.31-2.035,15.038-3.377,22.549-4.549  c1.048-0.17,2.098-0.354,3.147-0.555c-2.546,0.91-5.09,1.812-7.681,2.613c-4.441,1.396-8.931,2.444-12.986,4.836  c-1.805,1.063-2.221,4.379,0,5.328c6.216,2.63,12.786-0.678,18.831-2.8c9.918-3.47,21.161-5.12,31.417-7.434  c5.677-1.265,11.337-2.63,17.013-3.972c-9.532,2.977-19.002,6.131-28.287,9.794c-3.039,1.203-2.899,6.2,0.833,6.062  c5.089-0.185,9.886-1.334,14.729-2.892c5.813-1.866,11.444-3.362,17.414-4.658c11.814-2.567,23.644-5.066,35.566-7.018  c12.539-2.059,24.831-4.997,37.479-6.539c5.397-0.664,10.795-1.404,16.194-2.052c-0.37,0.085-0.725,0.177-1.064,0.239  c-6.725,1.226-13.265,3.309-19.989,4.526c-5.923,1.08-12.045,4.011-17.752,5.923c-5.445,1.812-11.29,2.661-16.287,5.491  c-3.224,1.82-0.91,6.207,2.375,5.636c29.859-5.174,59.333-12.478,89.085-18.161c-6.077,1.637-12.169,3.286-18.123,5.291  c-3.192,1.072-6.323,2.236-9.47,3.386c-5.568,1.096-11.12,2.437-15.763,5.082c-3.1,1.774-0.987,6.447,2.375,5.638  c5.353-1.281,10.535-3.085,15.702-4.959c3.979-0.748,7.974-1.373,11.521-2.298c11.382-2.977,22.872-5.561,34.456-7.543  c10.936-1.873,21.732-4.11,32.744-5.645c0.324-0.046,0.662-0.101,1.002-0.154c-15.67,4.434-31.016,9.501-46.47,14.645  c-2.346,0.786-3.316,4.403-0.741,5.646c4.688,2.281,12.693-1.342,17.352-2.507c11.49-2.876,23.151-4.797,34.795-6.909  c11.09-2.014,22.055-4.443,33.053-6.679c-5.522,1.858-11.15,3.339-16.627,5.515c-3.022,1.217-6.616,1.843-8.76,4.502  c-1.543,1.929-0.896,4.227,1.371,5.151c5.8,2.376,11.755,1.428,17.677,0c9.1-2.189,18.277-3.646,27.545-4.826  c8.129-1.026,16.288-3.663,24.262-5.568c8.992-2.151,18.015-4.181,27.146-5.638C453.833,447.392,452.167,441.453,448.281,442.07z" fill="#B3B3B3"/><g><g><path d="M304.828,113.767c-4.103,4.257-7.588,8.853-10.551,13.981c-3.593,6.185-9.407,11.691-13.742,17.452    c-1.095,1.458,1.373,2.869,2.453,1.427c3.963-5.283,7.928-10.526,12.524-15.292c1.388-1.434,2.375-4.157,3.469-5.892    c2.222-3.517,4.968-6.679,7.852-9.671C308.098,114.461,306.093,112.456,304.828,113.767z" fill="#1F8AFF"/><path d="M316.781,113.405c-7.82,3.177-12.354,10.241-16.519,17.228c-6.355,10.657-13.512,20.798-19.728,31.556    c-0.909,1.581,1.544,3.007,2.453,1.427c4.92-8.514,10.241-16.75,15.685-24.94c5.322-8.004,9.316-18.662,18.848-22.541    C319.202,115.456,318.462,112.718,316.781,113.405z" fill="#1F8AFF"/><path d="M312.185,136.201c-2.515,1.504-5.027,3.324-6.57,5.892c-2.715,4.542-7.512,8.167-10.812,12.323    c-6.247,7.874-12.432,15.825-17.09,24.762c-0.524,1.003,0.354,2.537,1.59,2.083c1.295-0.486,2.189-0.895,2.405-2.406    c0.046-0.301-0.016-0.548-0.108-0.779c3.995-7.064,8.822-13.48,13.913-19.842c2.513-3.155,4.919-6.17,7.71-9.092    c3.425-3.579,6.124-7.936,10.396-10.496C315.192,137.705,313.773,135.252,312.185,136.201z" fill="#1F8AFF"/><path d="M315.362,151.624c-5.692,0.902-8.499,7.858-11.938,11.691c-5.352,5.938-11.136,12.763-14.39,20.104    c-0.74,1.65,1.712,3.093,2.438,1.435c3.068-6.895,8.235-12.393,12.924-18.208c3.022-3.755,6.74-11.498,11.722-12.285    C317.923,154.068,317.15,151.347,315.362,151.624z" fill="#1F8AFF"/><path d="M109.474,85.458c-3.409,3.825-5.352,8.29-7.711,12.793c-3.378,6.424-8.006,12.354-12.323,18.168    c-5.105,6.848-12.139,12.547-17.799,18.971c-4.35,4.936-8.267,9.995-11.938,15.47c-1.018,1.527,1.435,2.938,2.453,1.427    c7.974-11.922,17.968-22.141,28.086-32.273c3.933-3.934,7.063-9.532,10.132-14.159c3.934-5.946,6.355-13.057,11.105-18.401    C112.682,86.098,110.678,84.093,109.474,85.458z" fill="#1F8AFF"/><path d="M112.081,115.471c-5.229,11.298-13.989,21.03-21.484,30.893c-4.381,5.73-8.361,11.761-12.354,17.76    c-3.27,4.874-8.113,8.645-11.46,13.635c-1.019,1.519,1.435,2.93,2.438,1.427c3.423-5.083,8.159-8.676,11.459-13.635    c3.995-6.007,8.067-11.961,12.354-17.76c7.389-9.979,16.241-19.541,21.486-30.893    C115.289,115.255,112.852,113.813,112.081,115.471z" fill="#1F8AFF"/><path d="M112.312,149.156c-10.503,8.128-16.581,21.901-24.045,32.582c-4.319,6.177-7.558,12.956-11.968,19.094    c-1.296,1.82-11.692,16.503-14.992,15.917c-1.789-0.324-2.545,2.406-0.756,2.73c3.578,0.633,5.876-2.345,7.896-4.959    c4.796-6.246,10.165-11.698,14.468-18.4c5.06-7.904,9.963-15.817,15.162-23.66c4.843-7.311,9.161-15.816,16.225-21.299    C115.752,150.043,113.731,148.061,112.312,149.156z" fill="#1F8AFF"/><path d="M109.474,183.134c-10.812,9.702-17.074,22.766-26.049,33.978c-4.844,6.062-9.377,13.049-15.053,18.354    c-4.134,3.878-8.576,6.648-11.506,11.66c-0.91,1.582,1.526,3,2.453,1.427c3.084-5.283,8.159-8.367,12.523-12.455    c5.738-5.376,10.365-12.963,15.285-19.11c8.421-10.542,14.158-22.704,24.354-31.849    C112.836,183.913,110.831,181.923,109.474,183.134z" fill="#1F8AFF"/><path d="M126.456,200.123c-2.283,1.79-3.655,3.501-5.151,5.954c-2.313,3.809-6.216,6.971-9.223,10.264    c-5.984,6.563-12.108,12.994-17.721,19.873c-10.889,13.327-21.671,26.752-31.819,40.641c-1.079,1.481,1.373,2.885,2.438,1.419    c10.549-14.421,21.793-28.325,33.114-42.175c5.043-6.162,10.657-11.853,15.994-17.753c2.791-3.092,5.815-5.984,8.514-9.146    c2.082-2.429,3.238-5.012,5.861-7.071C129.895,200.994,127.875,199.013,126.456,200.123z" fill="#1F8AFF"/><path d="M147.693,207.203c-6.817,8.059-15.16,14.583-22.056,22.641c-7.757,9.085-15.068,18.532-22.81,27.608    c-6.896,8.066-12.817,17.189-18.801,25.941c-2.622,3.811-5.245,7.666-7.481,11.707c-2.545,4.611-4.55,9.501-9.254,12.386    c-1.557,0.956-0.138,3.4,1.419,2.452c6.046-3.702,8.282-10.311,11.845-16.088c6.509-10.549,13.974-20.497,21.208-30.553    c7.326-10.171,16.07-19.681,24.091-29.32c7.388-8.892,16.426-16.01,23.844-24.779    C150.872,207.819,148.881,205.807,147.693,207.203z" fill="#1F8AFF"/><path d="M123.633,266.652c-4.041,4.21-7.465,8.714-10.427,13.742c-3.793,6.424-9.068,12.085-13.48,18.106    c-9.933,13.581-20.822,25.619-32.713,37.526c-1.296,1.287,0.709,3.285,1.989,1.997c10.026-10.033,19.912-20.144,28.534-31.434    c5.151-6.748,9.917-13.773,15.222-20.428c4.566-5.729,7.697-12.116,12.878-17.506    C126.888,267.339,124.898,265.341,123.633,266.652z" fill="#1F8AFF"/><path d="M114.765,311.164c-0.771,4.188-5.769,8.699-8.205,12.246c-3.825,5.545-8.467,10.843-12.894,15.925    c-9.562,10.998-18.523,22.503-28.086,33.5c-1.188,1.365,0.818,3.378,2.004,1.989c10.103-11.621,19.634-23.752,29.737-35.389    c4.071-4.682,7.989-9.609,11.675-14.599c2.807-3.794,7.604-8.074,8.499-12.917C117.833,310.139,115.104,309.367,114.765,311.164z" fill="#1F8AFF"/><path d="M120.58,344.803c-4.967,9.663-10.734,18.747-17.121,27.492c-5.336,7.312-12.061,15.431-15.592,23.813    c-0.695,1.674,2.035,2.406,2.745,0.749c1.711-4.08,4.719-7.218,6.925-10.989c2.745-4.658,6.185-9.433,9.578-13.627    c6.276-7.773,11.336-17.12,15.901-26.012C123.865,344.61,121.413,343.176,120.58,344.803z" fill="#1F8AFF"/><path d="M133.319,367.452c-5.506,8.136-11.491,15.933-16.997,24.068c-4.442,6.57-9.439,12.285-11.459,20.15    c-0.448,1.773,2.267,2.522,2.73,0.755c2.175-8.451,7.958-14.713,12.724-21.762c4.982-7.372,10.457-14.405,15.439-21.786    C136.79,367.367,134.337,365.956,133.319,367.452z" fill="#1F8AFF"/><path d="M168.931,374.246c-6.431,8.027-12.678,16.218-19.31,24.068c-4.627,5.491-9.161,10.411-10.781,17.613    c-0.417,1.774,2.313,2.53,2.73,0.748c1.789-7.936,7.527-13.048,12.369-19.194c5.615-7.126,11.321-14.158,16.997-21.237    C172.063,374.833,170.074,372.819,168.931,374.246z" fill="#1F8AFF"/><path d="M198.252,380.909c-0.541,4.087-4.782,7.103-7.326,10.125c-2.483,2.924-4.997,5.754-7.619,8.553    c-3.826,4.095-5.631,9.816-7.666,14.914c-0.679,1.705,2.066,2.438,2.73,0.756c1.342-3.37,2.637-6.747,4.333-9.955    c2.114-3.965,5.815-7.057,8.699-10.457c3.655-4.296,8.915-8.106,9.67-13.936C201.306,379.097,198.468,379.128,198.252,380.909z" fill="#1F8AFF"/><path d="M232.261,379.12c-2.005,8.651-11.012,13.449-16.704,19.695c-4.905,5.391-9.917,9.74-11.599,17.112    c-0.417,1.774,2.313,2.53,2.73,0.748c1.928-8.46,10.271-16.279,16.704-21.831c5.244-4.521,9.963-7.936,11.599-14.978    C235.407,378.095,232.677,377.339,232.261,379.12z" fill="#1F8AFF"/><path d="M263.555,383.022c-2.421,5.452-6.401,9.554-10.303,13.966c-4.118,4.674-6.247,10.519-9.516,15.763    c-0.972,1.558,1.48,2.969,2.436,1.435c3.486-5.599,5.846-11.514,10.257-16.512c3.686-4.18,7.264-8.058,9.562-13.217    C266.731,382.798,264.296,381.355,263.555,383.022z" fill="#1F8AFF"/><path d="M297.332,382.32c0.756,7.703-7.989,13.396-12.323,18.816c-3.609,4.526-7.989,7.866-10.272,13.364    c-0.71,1.689,2.037,2.423,2.73,0.756c2.853-6.871,9.947-12.862,15.053-18.199c3.872-4.049,8.236-8.737,7.651-14.737    C299.985,380.531,297.162,380.508,297.332,382.32z" fill="#1F8AFF"/><path d="M327.115,386.199c-0.618,1.767-2.145,2.514-3.471,3.67c-2.453,2.152-4.104,5.045-6.4,7.381    c-5.568,5.629-9.887,12.262-15.255,18.046c-1.233,1.342,0.757,3.346,2.006,2.005c5.876-6.354,10.703-13.473,16.811-19.65    c2.452-2.475,3.779-5.274,6.972-7.032c1.064-0.578,1.682-2.575,2.067-3.671C330.446,385.221,327.716,384.479,327.115,386.199z" fill="#1F8AFF"/><path d="M351.175,384.772c-1.666,6.347-6.524,10.766-11.104,15.169c-4.735,4.565-9.347,9.276-14.005,13.936    c-1.295,1.296,0.71,3.293,1.99,2.005c5.12-5.105,10.179-10.257,15.393-15.262c4.519-4.341,8.822-8.892,10.457-15.092    C354.368,383.762,351.638,383.015,351.175,384.772z" fill="#1F8AFF"/><path d="M456.302,344.51c-4.982,4.635-10.226,8.769-15.007,13.634c-5.461,5.546-10.351,11.529-15.425,17.405    c-5.229,6.038-10.718,11.799-15.932,17.838c-4.318,4.99-8.761,9.231-11.906,15.123c-0.849,1.604,1.587,3.037,2.451,1.418    c3.023-5.684,7.372-9.701,11.46-14.544c5.136-6.093,10.658-11.854,15.933-17.829c5.137-5.83,9.994-11.822,15.424-17.405    c4.75-4.905,10.024-9,15.006-13.634C459.633,345.273,457.628,343.268,456.302,344.51z" fill="#1F8AFF"/><path d="M456.302,369.997c-14.884,11.907-27.716,24.754-39.639,39.638c-1.126,1.403,0.848,3.424,2.005,1.998    c11.907-14.876,24.754-27.725,39.638-39.631C459.725,370.86,457.705,368.871,456.302,369.997z" fill="#1F8AFF"/><path d="M174.592,210.033c-10.349,9.663-26.559,16.626-32.774,30.022c-0.771,1.634,1.666,3.07,2.438,1.419    c6.076-13.064,22.194-19.973,32.342-29.436C177.939,210.789,175.918,208.784,174.592,210.033z" fill="#1F8AFF"/><path d="M204.313,207.203c-7.804,7.55-16.688,13.604-23.937,21.725c-3.995,4.496-11.799,8.059-13.218,14.289    c-0.216,0.894,0.401,1.789,1.357,1.789h1.419c1.604,0,1.789-2.19,0.555-2.714c2.499-5.152,10.333-8.946,13.527-13.234    c5.83-7.842,15.314-13.094,22.301-19.858C207.645,207.935,205.64,205.93,204.313,207.203z" fill="#1F8AFF"/><path d="M231.211,212.862c-14.698,11.561-31.217,20.49-42.692,35.675c-1.096,1.465,1.373,2.87,2.452,1.427    c11.259-14.907,27.809-23.744,42.245-35.096C234.651,213.742,232.631,211.745,231.211,212.862z" fill="#1F8AFF"/><path d="M261.226,214.058c-5.938,4.535-12.57,8.028-18.354,12.763c-7.08,5.776-13.681,12.138-20.158,18.601    c-1.281,1.295,0.725,3.292,2.004,2.004c5.291-5.283,10.627-10.457,16.318-15.292c6.879-5.815,14.498-10.196,21.624-15.633    C264.095,215.408,262.69,212.948,261.226,214.058z" fill="#1F8AFF"/><path d="M290.453,211.737c-3.64,5.598-10.474,10.403-15.238,15.169l-15.686,15.686    c-1.295,1.294,0.709,3.292,2.005,2.004l17.089-17.105c4.612-4.596,10.751-8.907,14.268-14.328    C293.893,211.629,291.44,210.209,290.453,211.737z" fill="#1F8AFF"/><path d="M318.616,204.997c-0.556,1.874-3.778,5.437-4.982,7.45c-1.912,3.192-5.86,6.871-8.391,9.57    c-5.458,5.807-11.288,10.712-14.79,18.038c-0.571,1.188,0.339,2.252,1.589,2.074c1.527-0.223,1.942-1.11,2.406-2.406    c0.154-0.393,0.108-0.716-0.031-0.994c4.473-7.38,11.49-12.632,16.888-19.365c3.348-4.188,8.499-8.398,10.041-13.619    C321.87,203.995,319.141,203.247,318.616,204.997z" fill="#1F8AFF"/><path d="M347.288,207.203c-13.449,13.449-26.929,26.868-41.041,39.631c-1.358,1.234,0.647,3.231,1.989,2.004    c14.113-12.762,27.607-26.181,41.058-39.639C350.59,207.912,348.584,205.907,347.288,207.203z" fill="#1F8AFF"/><path d="M390.397,97.835c-6.941,2.344-11.46,8.221-16.38,13.341c-6.2,6.494-10.581,14.491-16.812,20.991    c-1.25,1.327,0.739,3.332,2.005,2.006c5.197-5.422,9.27-11.661,13.881-17.552c4.534-5.799,10.95-13.65,18.062-16.056    C392.865,99.979,392.124,97.249,390.397,97.835z" fill="#1F8AFF"/><path d="M400.684,111.939c-0.693,5.275-7.587,9.385-11.351,12.624c-4.967,4.272-9.532,9.015-14.313,13.496    c-9.64,9.015-19.356,17.83-27.731,28.086c-1.142,1.404,0.864,3.424,2.006,2.005c9.424-11.536,20.56-21.307,31.356-31.502    c5.352-5.036,10.672-10.018,16.209-14.861c3.362-2.953,6.062-5.336,6.647-9.848C403.739,110.127,400.9,110.158,400.684,111.939z" fill="#1F8AFF"/><path d="M416.663,123.677c-5.306,5.291-11.183,9.709-16.796,14.629c-6.925,6.077-13.696,12.262-21.131,17.707    c-5.675,4.156-10.98,10.294-15.623,15.547c-4.55,5.159-9.255,10.48-13.203,16.109c-1.049,1.504,1.404,2.907,2.438,1.427    c17.938-25.487,44.573-41.721,66.32-63.413C419.964,124.394,417.958,122.389,416.663,123.677z" fill="#1F8AFF"/><path d="M439.32,137.836c-5.521,5.406-12.463,9.848-18.354,14.983c-8.036,7.018-16.134,13.981-24.185,20.999    c-15.053,13.11-29.69,26.328-43.817,40.463c-1.296,1.288,0.709,3.293,1.989,1.998c14.128-14.128,28.78-27.338,43.834-40.463    c7.355-6.416,14.759-12.802,22.132-19.21c6.586-5.722,14.19-10.696,20.405-16.765C442.62,138.56,440.616,136.555,439.32,137.836z" fill="#1F8AFF"/><path d="M454.883,153.405c-16.75,16.557-35.782,30.454-53.504,45.892c-8.9,7.758-17.723,15.663-26.498,23.591    c-8.854,7.989-18.816,14.521-27.593,22.534c-1.342,1.234,0.664,3.231,2.006,2.004c8.143-7.433,17.489-13.449,25.71-20.845    c8.807-7.92,17.676-15.701,26.498-23.613c18.122-16.264,38.033-30.399,55.386-47.559    C458.183,154.115,456.193,152.125,454.883,153.405z" fill="#1F8AFF"/><path d="M449.515,184.33c-14.529,11.213-26.929,24.507-40.655,36.623c-13.265,11.707-26.405,23.283-38.914,35.79    c-1.296,1.296,0.709,3.302,2.006,2.006c11.845-11.846,24.091-23.066,36.8-33.978c14.405-12.339,27.13-26.375,42.183-37.996    C452.353,185.671,450.948,183.219,449.515,184.33z" fill="#1F8AFF"/><path d="M454.419,212.076c-0.323-1.804-3.037-1.041-2.729,0.749c0.448,2.552-5.398,6.176-7.049,7.542    c-3.285,2.73-6.292,5.854-9.562,8.638c-7.249,6.208-14.221,12.639-21.3,19.032c-11.352,10.265-24.432,18.901-31.31,33.06    c-0.803,1.636,1.649,3.07,2.437,1.436c7.928-16.288,24.415-26.004,37.017-38.328c7.511-7.342,16.102-13.511,23.645-20.845    C448.682,220.313,455.329,217.266,454.419,212.076z" fill="#1F8AFF"/><path d="M459.418,239.545c-6.988,4.412-12.865,9.964-18.693,15.786c-7.143,7.126-14.252,14.622-20.992,22.125    c-6.632,7.396-13.048,14.691-20.482,21.323c-1.234,1.087-12.693,10.696-11.737,11.761c-1.219-1.357-3.223,0.655-1.99,2.004    c0.047,0.048,0.094,0.108,0.14,0.154c0.309,0.349,0.925,0.532,1.373,0.363c3.593-1.303,6.647-5.306,9.299-7.913    c6.216-6.13,12.895-11.613,18.818-18.075c6.879-7.488,13.603-14.961,20.729-22.218c8.021-8.174,15.146-16.673,24.97-22.873    C462.378,241.019,460.975,238.558,459.418,239.545z" fill="#1F8AFF"/><path d="M453.108,268.695c-1.188,2.993-6.57,6.324-8.729,8.685c-3.963,4.318-7.526,9.007-11.306,13.472    c-8.497,10.041-17.089,20.213-26.328,29.598c-1.279,1.304,0.726,3.309,2.006,1.997c9.824-9.972,18.908-20.837,27.947-31.51    c4.334-5.113,8.437-10.38,13.11-15.199c2.066-2.122,4.889-3.417,6.03-6.286C456.502,267.756,453.772,267.023,453.108,268.695z" fill="#1F8AFF"/><path d="M446.384,299.219c-11.737,10.342-22.795,21.377-33.839,32.436c-4.904,4.889-9.485,9.939-15.347,13.688    c-4.318,2.761-7.988,6.284-10.487,10.78c-0.895,1.604,1.558,3.031,2.451,1.436c3.039-5.499,7.836-8.584,12.864-12.023    c4.673-3.178,8.529-7.896,12.508-11.884c11.059-11.051,22.117-22.086,33.854-32.435    C449.763,300.014,447.757,298.017,446.384,299.219z" fill="#1F8AFF"/><path d="M454.513,316.824c-1.003,2.553-5.075,4.828-6.987,6.74c-3.949,3.934-8.036,7.55-12.246,11.175    c-8.684,7.495-16.642,16.287-24.755,24.407c-7.265,7.257-15.146,14.098-20.883,22.664c-3.085,4.612-6.741,9.472-10.504,13.542    c-3.008,3.271-6.895,10.165-11.398,11.083c-1.789,0.369-1.032,3.092,0.756,2.729c3.563-0.726,5.306-3.439,7.697-6.023    c3.114-3.362,6.693-7.086,9.315-10.857c7.449-10.812,15.855-19.974,25.141-29.259c8.774-8.775,17.459-17.906,26.637-26.282    c4.703-4.302,9.407-8.343,13.942-12.878c2.097-2.082,4.889-3.432,6.016-6.285C457.92,315.877,455.175,315.151,454.513,316.824z" fill="#1F8AFF"/><path d="M209.974,248.26c-2.638,2.776-4.997,5.746-7.311,8.784c-3.083,4.056-7.233,7.981-9.902,12.261    c-5.753,9.209-13.14,17.22-18.879,26.429c-0.971,1.55,1.481,2.968,2.454,1.419c5.29-8.482,11.968-15.963,17.536-24.262    c5.152-7.742,11.722-15.924,18.092-22.625C213.228,248.938,211.222,246.934,209.974,248.26z" fill="#1F8AFF"/><path d="M238.276,261.47c-10.488,10.604-20.175,21.895-28.534,34.264c-1.019,1.52,1.434,2.931,2.452,1.419    c8.22-12.162,17.752-23.251,28.086-33.678C241.562,262.172,239.571,260.167,238.276,261.47z" fill="#1F8AFF"/><path d="M270.372,304.888c-15.995,15.986-32.945,30.962-43.633,51.252c-0.864,1.611,1.588,3.045,2.438,1.419    c10.534-19.981,27.438-34.911,43.201-50.667C273.657,305.597,271.651,303.592,270.372,304.888z" fill="#1F8AFF"/><path d="M302.237,307.055c-6.108,8.883-13.619,16.973-18.879,26.428c-0.895,1.596,1.558,3.03,2.437,1.426    c5.275-9.446,12.771-17.536,18.879-26.42C305.707,306.977,303.254,305.558,302.237,307.055z" fill="#1F8AFF"/><path d="M334.179,318.714c-2.036,8.8-8.978,14.583-13.064,22.318c-0.863,1.611,1.589,3.037,2.438,1.426    c4.211-7.974,11.259-13.92,13.356-22.988C337.324,317.696,334.594,316.939,334.179,318.714z" fill="#1F8AFF"/><path d="M181.934,102.701c-8.823,4.874-15.053,15.917-17.629,25.379c-0.478,1.773,2.25,2.514,2.73,0.756    c2.375-8.76,8.174-19.187,16.333-23.698C184.973,104.266,183.537,101.814,181.934,102.701z" fill="#1F8AFF"/><path d="M200.303,112.649c-4.241,8.066-10.843,14.575-15.1,22.649c-0.848,1.611,1.604,3.038,2.454,1.426    c4.241-8.066,10.842-14.583,15.099-22.657C203.604,112.456,201.151,111.022,200.303,112.649z" fill="#1F8AFF"/><path d="M213.521,159.829c-1.79,3.316-4.257,6.154-6.355,9.27c-1.943,2.877-2.453,6.748-4.75,9.323    c-1.203,1.358,0.787,3.363,2.005,2.005c2.021-2.26,2.714-5.151,3.995-7.842c1.943-4.103,5.381-7.334,7.542-11.329    C216.837,159.66,214.384,158.233,213.521,159.829z" fill="#1F8AFF"/><path d="M234.281,169.269c-1.559,2.814-4.18,4.118-6.386,6.323c-3.455,3.463-6.925,6.918-10.38,10.38    c-1.294,1.288,0.709,3.293,2.005,2.005l10.38-10.388c2.437-2.437,5.105-3.771,6.832-6.894    C237.613,169.106,235.16,167.672,234.281,169.269z" fill="#1F8AFF"/></g><g><path d="M250.105,430.912c-12.261,0-24.723-0.363-36.784-0.71c-12.077-0.347-24.554-0.709-36.832-0.709    c-22.426,0-44.265-0.14-65.025-1.828c-11.446-0.934-20.329-3.493-29.753-8.583c-1.973-1.064-4.056-2.066-6.153-3.068    c-5.923-2.839-12.031-5.77-16.195-10.643c-11.876-13.874-11.691-27.501-11.476-44.744c0.046-2.367,0.062-4.805,0.062-7.287    c0-1.342,0.401-2.468,1.172-3.37l0.401-0.455l0.015-0.602c0.34-9.292,1.157-18.747,1.943-27.901    c1.048-12.106,2.129-24.615,2.129-37.047c0-17.791,0.37-35.86,0.724-53.334c0.263-12.825,0.524-26.081,0.649-39.138    c0.061-6.516-0.433-14.312-0.972-22.571c-1.728-26.992-3.887-60.591,11.582-77.511c6.51-7.118,15.485-10.711,27.424-11.004    c0,0,0,0,0.015,0c1.388,0,2.438,0.347,3.271,1.034l0.463,0.378h66.984c6.94,0,14.051-0.131,20.929-0.255    c6.895-0.123,14.051-0.254,21.069-0.254c11.043,0,20.035,0.332,28.333,1.018c2.39,0.208,4.796,0.44,7.187,0.687    c5.815,0.586,11.845,1.188,17.829,1.188c2.576,0,4.951-0.108,7.266-0.324c3.114-0.301,6.153-0.679,9.161-1.049    c6.354-0.787,12.338-1.527,18.724-1.527c1.11,0,2.222,0.015,3.362,0.069c9.608,0.425,19.757,0.609,32.96,0.609    c6.185,0,12.354-0.046,18.539-0.084c6.17-0.039,12.339-0.077,18.493-0.077l0.571,0.062c0,0,0.662-0.039,0.677-0.039    c15.101,0,29.305,11.182,41.845,21.037c1.588,1.265,3.162,2.491,4.688,3.671c13.435,10.349,26.837,22.225,40.965,36.299    c1.65,1.658,1.697,3.37,1.45,4.519l-0.124,0.609l0.293,0.54c4.428,8.391,4.843,20.467,4.812,25.271    c-0.047,9.285-0.17,18.562-0.293,27.847c-0.154,11.991-0.324,24.385-0.324,36.592c0,11.815,0.355,23.798,0.709,35.389    c0.309,10.481,0.617,21.323,0.68,31.974c0.029,7.318,0.029,14.652,0.029,21.979v6.763c0,1.257-0.184,3.186-0.385,5.406    c-0.771,8.321-1.172,14.944,1.157,18.106c1.975,2.669,0.647,4.667-0.309,5.614l-0.493,0.486l-0.017,0.693    c-0.23,14.761-1.434,31.525-12.878,43.487c-12.415,12.971-30.369,15.755-49.247,17.66    C350.604,430.912,297.208,430.912,250.105,430.912L250.105,430.912z M138.764,417.316c18.493,0,37.309,0.718,55.509,1.411    c18.292,0.701,37.201,1.419,55.832,1.419c5.059,0,25.433,0.038,30.57,0.038c27.653,0,59.78-0.23,90.983-3.092    c5.073-0.463,10.24-0.672,15.731-0.902c14.421-0.586,29.351-1.188,42.444-6.693c12.355-5.183,19.002-13.312,20.312-24.833    c0.31-2.582,0.68-5.12,1.05-7.656c0.787-5.353,1.604-10.883,1.62-16.589c0-0.416,0.061-0.802,0.123-1.172l0.077-0.332    l-0.077-0.339c-0.463-2.205-0.34-4.589-0.231-7.118c0.061-1.233,0.108-2.498,0.108-3.786v-27.27    c0-12.045-0.355-24.269-0.695-36.082c-0.231-8.414-0.493-16.827-0.617-25.256c-0.293-20.606-0.524-42.654-0.092-64.255    c0.263-13.819,0.54-28.125-3.979-42.908l-0.17-0.579l-0.508-0.339c-1.543-1.034-2.314-2.36-2.406-4.064l-0.031-0.686l-0.51-0.478    c-4.765-4.396-9.778-8.622-14.636-12.702c-5.784-4.858-11.77-9.895-17.259-15.176c-3.054-2.954-6.633-5.067-10.088-7.126    c-3.008-1.79-5.86-3.486-8.391-5.684c-5.752-4.966-14.45-12.493-24.414-12.493l-0.571-0.062l-0.632,0.039    c-5.506,0.023-10.781,0.039-16.071,0.054c-5.275,0.015-10.565,0.038-15.84,0.038c-10.52,0-24.354-0.062-38.173-0.509    c-0.772-0.031-1.527-0.039-2.283-0.039c-5.722,0-11.321,0.679-16.734,1.327c-4.103,0.494-8.344,1.01-12.601,1.218    c-1.573,0.077-3.146,0.116-4.704,0.116c-5.707,0-11.476-0.478-17.044-0.933c-3.331-0.27-6.663-0.54-10.056-0.725    c-16.688-0.917-34.563-1.341-56.28-1.341c-15.162,0-30.569,0.208-45.498,0.408c-14.838,0.201-30.2,0.409-45.222,0.409    c-0.509,0-1.019-0.077-1.605-0.239l-0.462-0.131l-0.463,0.131c-22.503,6.354-21.146,36.453-20.267,56.365l0.169,3.84    c0.91,23.274,0.463,46.417-0.124,70.039c-0.263,10.117-0.046,20.459,0.154,30.461c0.309,15.276,0.618,31.07-0.693,46.355    c-0.479,5.443-0.601,10.943-0.694,16.279c-0.108,5.121-0.216,10.41-0.647,15.593c-0.278,3.285-0.709,6.562-1.126,9.732    c-0.694,5.337-1.418,10.858-1.418,16.581c0,1.294-0.386,2.404-1.111,3.285l-0.386,0.462v0.601    c-0.169,16.095-0.34,32.737,20.127,43.418l2.313,1.211c9.547,5.012,18.57,9.756,30.168,10.341    c7.789,0.394,15.593,0.417,23.552,0.417H138.764z" fill="#0077BF"/><path d="M329.736,219.356c-3.485,0-7.079-0.239-10.55-0.478c-2.236-0.154-4.457-0.308-6.586-0.394    c-7.85-0.301-15.669-0.717-23.489-1.133c-15.038-0.786-30.585-1.62-46.023-1.62c-10.952,0-22.056-0.354-32.806-0.702    c-10.75-0.355-21.855-0.709-32.79-0.709c-2.947,0-5.877,0.039-8.837,0.07c-2.961,0.039-5.923,0.069-8.885,0.069    c-12.663,0-26.126-0.655-38.635-5.437c-10.659-4.072-10.195-14.197-9.686-24.909c0.108-2.245,0.2-4.488,0.2-6.663L110.246,90    c0-2.892,2.452-5.352,5.383-5.352h1.403c2.544,0,3.81,1.341,4.427,2.46c1.019,1.851,0.925,4.365-0.186,6.116l-0.277,0.424    l1.419,97.908c0,8.028,5.183,8.984,11.167,10.079l1.373,0.262c5.49,1.041,11.536,1.527,19.048,1.527    c3.701,0,7.418-0.108,11.121-0.216c3.686-0.116,7.356-0.231,11.027-0.231c5.444,0,9.917,0.255,14.066,0.794    c9.424,1.219,18.939,1.38,26.173,1.38c3.578,0,7.172-0.046,10.75-0.093c3.562-0.046,7.125-0.084,10.688-0.084    c21.901,0,40.364,0.586,58.116,1.828c1.973,0.147,4.396,0.424,7.095,0.732c5.352,0.625,12.03,1.396,18.322,1.396    c15.841,0,23.875-5.236,23.875-15.562c0-7.48-0.292-18.331-0.601-29.821c-0.433-16.48-0.879-33.516-0.602-44.026l0.061-2.159    c0.232-7.273,0.479-14.792-3.36-21.516c-1.064-1.874-1.157-4.604-1.157-7.233c0-3.556,2.698-5.144,5.382-5.144    c2.669,0,5.368,1.588,5.368,5.144c0,3.046,1.125,6.138,2.205,9.115c1.003,2.73,2.021,5.545,2.145,8.236    c0.354,6.84,0.2,13.835,0.061,20.606c-0.077,3.779-0.154,7.542-0.154,11.313c0,3.987,0.386,9.755,0.85,16.441    c1.265,18.554,2.991,43.979-2.16,53.866C349.186,216.009,342.153,219.356,329.736,219.356L329.736,219.356z" fill="#0077BF"/><path d="M292.088,192.558c-10.827,0-17.906-1.827-21.624-5.591c-2.221-2.236-3.269-5.144-3.223-8.899    c0.139-12.354,0.139-24.908,0.139-37.055v-0.732c0-3.216-0.154-6.439-0.278-9.555c-0.107-2.26-0.216-4.512-0.262-6.764    c-0.047-2.268,0.433-4.326,0.941-6.509c0.447-1.92,0.894-3.902,1.002-6.107c0.031-0.432,0.092-0.856,0.2-1.272l0.062-0.193v-0.193    c0.062-2.599,1.666-5.221,5.136-5.221c2.545,0,5.737-0.216,9.1-0.432c4.179-0.277,8.899-0.602,13.557-0.602    c15.994,0,24.262,3.918,26.02,12.324c3.1,14.86,2.221,30.114,1.373,44.867c-0.463,7.936-0.925,16.133-0.802,24.276    c0.031,1.488-0.417,2.684-1.281,3.586c-0.956,0.964-2.406,1.52-3.963,1.52l0,0c-0.31,0-0.616-0.016-0.91-0.062l-0.817-0.107    l-0.586,0.555c-0.91,0.84-2.083,1.28-3.471,1.28c-2.158,0-4.797,0.17-7.851,0.37C300.741,192.28,296.422,192.558,292.088,192.558    L292.088,192.558z M291.379,114.839c-2.946,0-5.908,0.1-8.838,0.193l-3.286,0.108l-0.369,3.647    c-0.371,3.462-0.756,7.049-0.756,10.874v26.552c0,1.357-0.123,2.992-0.246,4.735c-0.448,6.061-1.004,13.604,2.684,17.567    c1.587,1.712,3.793,2.591,6.555,2.591c0,0,0.478-0.008,0.709-0.023c3.332-0.177,6.863-0.247,11.444-0.247    c2.189,0,4.396,0.023,6.602,0.031l6.771,0.039v-1.697c0.061-7.465,0.4-15,0.725-22.287c0.354-7.835,0.725-15.933,0.725-24.007    v-1.72c0.03-8.575,0.046-13.757-10.381-15.492C300.186,115.117,296.268,114.839,291.379,114.839L291.379,114.839z" fill="#0077BF"/><path d="M363.638,387.001l-0.294,0.016l-0.247-0.016c-17.057-0.038-34.331-0.378-51.066-0.701    c-16.642-0.332-33.854-0.663-50.819-0.71c-16.226-0.03-32.745-0.732-48.739-1.403c-16.441-0.694-33.454-1.403-50.142-1.403    c-23.814,0-46.409-3.378-50.435-27.848c-1.572-9.446-1.094-19.758-0.647-29.712c0.201-4.636,0.401-9.424,0.401-14.005    c0-6.986-0.355-14.021-0.709-20.822c-0.339-6.74-0.693-13.711-0.693-20.591c0-1.372,0.416-2.521,1.249-3.439l0.386-0.416    l0.046-0.578c0.724-8.428,3.147-13.387,7.635-15.585c7.111-3.494,15.608-3.964,22.98-3.964c2.375,0,4.75,0.054,7.08,0.1    c2.283,0.054,4.519,0.107,6.694,0.107h101.285c14.097,0,28.441,1.041,42.308,2.051c13.88,1.01,28.224,2.06,42.337,2.06    c2.252,0,4.504-0.023,6.755-0.077c0.973-0.031,1.99-0.062,3.055-0.108c2.143-0.061,4.442-0.146,6.786-0.146    c6.663,0,14.976,0.57,20.127,5.02c4.488,3.863,8.005,8.537,10.18,13.504c0.37,0.871,0.648,2.027,0.941,3.254    c0.169,0.671,0.323,1.349,0.509,1.998l0.139,0.509l0.4,0.339c0.973,0.817,1.527,2.021,1.62,3.478l0.016,0.271l0.107,0.262    c0.371,0.918,0.386,1.828,0.062,2.691l-0.108,0.301v0.315c0.108,8.646,0.663,17.56,1.172,26.19    c0.987,16.395,2.021,33.353,0.216,49.446c-1.773,15.957-11.336,26.838-25.603,29.144l-0.186,0.03l-0.169,0.07    c-0.679,0.261-1.357,0.393-2.083,0.393L363.638,387.001z M122.415,272.645c0,1.18-0.324,2.221-0.941,3.068l-0.339,0.463    l0.015,0.587c0.123,4.533,0.355,9.061,0.571,13.596c0.339,6.84,0.693,13.896,0.693,20.86v21.237c0,1.836-0.2,3.94-0.401,6.161    c-0.432,4.604-0.879,9.37,0.201,13.288c5.614,20.112,22.225,20.112,36.877,20.112c6.957,0,14.083,0.517,20.977,1.018    c5.475,0.401,11.135,0.817,16.719,0.972c53.072,1.473,109.152,2.229,166.711,2.252c5.8-0.132,10.411-2.005,13.742-5.575    c7.882-8.452,7.126-24.546,6.51-37.472c-0.154-3.1-0.294-6.022-0.294-8.544c0-7.735-0.354-15.616-0.679-23.243    c-0.292-6.401-0.586-13.01-0.662-19.511l-0.017-0.463l-0.231-0.401c-1.372-2.229-2.158-4.681-2.93-7.049    c-1.974-6.139-4.011-12.485-15.81-13.063c-1.819-0.092-3.64-0.13-5.475-0.13c-3.193,0-6.401,0.106-9.593,0.215    c-3.179,0.115-6.341,0.224-9.501,0.224c-3.302,0-6.201-0.131-8.838-0.386c-22.504-2.144-44.559-4.071-66.876-4.071l-99.296-0.016    l-17.845,0.016c-3.239,0-6.694,0.03-10.119,0.307c-12.678,1.042-13.248,5.537-13.171,13.373v0.918V272.645z" fill="#0077BF"/></g></g></svg>