<?xml version="1.0" ?><!DOCTYPE svg  PUBLIC '-//W3C//DTD SVG 1.1//EN'  'http://www.w3.org/Graphics/SVG/1.1/DTD/svg11.dtd'><svg enable-background="new 0 0 512 512" height="512px" id="Layer_1" version="1.1" viewBox="0 0 512 512" width="512px" xml:space="preserve" xmlns="http://www.w3.org/2000/svg" xmlns:xlink="http://www.w3.org/1999/xlink"><path d="M424.235,445.59c-14.444,2.314-28.572,6.229-42.838,9.413c-6.385,1.426-13.019,1.87-19.465,3.098  c-3.77,0.712-7.688,2.034-11.587,2.576c1.191-0.378,2.268-0.714,3.015-0.993c5.001-1.919,10.201-3.228,15.327-4.749  c8.436-2.508,17.314-3.747,24.783-8.722c2.055-1.372,1.542-5.406-1.385-5.104c-8.427,0.876-17.02,2.02-25.378,3.465  c-9.367,1.633-18.473,4.47-27.833,6.175c-1.247,0.226-2.479,0.451-3.728,0.678c5.804-1.645,11.606-3.323,17.288-5.357  c2.829-1.014,7.88-2.316,7.215-6.243c-0.191-1.156-1.515-2.042-2.639-2.008c-9.359,0.261-18.547,2.982-27.784,4.358  c-4.7,0.7-9.406,1.338-14.102,2.042c1.132-0.589,2.091-1.33,2.598-2.274c0.892-1.652-0.178-4.371-2.364-4.126  c-19.76,2.256-39.232,6.071-58.651,10.17c2.481-1.178,4.817-2.597,6.886-4.393c1.843-1.603,0.337-4.694-1.945-4.68  c-9.085,0.054-18.308,1.961-27.346,2.939c-10.312,1.117-20.555,2.864-30.689,5.021c-3.535,0.748-7.084,1.426-10.634,2.098  c3.783-1.158,7.558-2.344,11.313-3.578c3.392-1.116,1.986-5.904-1.46-5.288c-7.791,1.392-15.766,1.767-23.591,3.021  c-8.332,1.33-16.43,3.873-24.639,5.75c-2.255,0.521-4.516,1.021-6.77,1.526c5.625-1.848,11.209-3.815,16.554-6.385  c2.459-1.179,1.268-5.242-1.384-5.104c-5.509,0.282-10.717,2.206-16.074,3.384c-5.859,1.296-11.676,2.481-17.473,3.983  c0.164-1.487-0.706-3.065-2.625-2.982c-7.249,0.31-15.012,2.673-21.864,4.947c-6.036,2.016-13.354,2.811-18.431,6.817  c-1.597,1.254-0.685,4.199,1.206,4.585c3.898,0.78,7.591-0.582,11.319-1.625c6.509-1.802,13.354-2.986,20.035-4.034  c0.931-0.152,1.87-0.316,2.795-0.493c-2.254,0.807-4.529,1.603-6.823,2.328c-3.961,1.232-7.929,2.165-11.539,4.29  c-1.596,0.944-1.973,3.897,0,4.727c5.516,2.344,11.354-0.589,16.739-2.481c8.804-3.082,18.788-4.547,27.907-6.596  c5.043-1.132,10.079-2.344,15.108-3.537c-8.463,2.639-16.863,5.448-25.126,8.702c-2.693,1.07-2.583,5.517,0.74,5.387  c4.515-0.164,8.798-1.188,13.087-2.571c5.16-1.657,10.161-2.987,15.478-4.138c10.49-2.282,20.994-4.501,31.595-6.236  c11.14-1.828,22.062-4.438,33.299-5.809c4.804-0.589,9.593-1.254,14.376-1.823c-0.302,0.076-0.631,0.149-0.939,0.206  c-5.968,1.095-11.778,2.945-17.747,4.027c-5.269,0.96-10.702,3.563-15.787,5.264c-4.823,1.61-10.018,2.363-14.472,4.879  c-2.864,1.617-0.807,5.515,2.118,5.009c26.53-4.606,52.718-11.08,79.153-16.138c-5.4,1.452-10.812,2.92-16.109,4.702  c-2.822,0.952-5.611,1.985-8.407,3.006c-4.961,0.975-9.887,2.167-14.005,4.516c-2.754,1.578-0.871,5.729,2.11,5.009  c4.755-1.144,9.36-2.746,13.943-4.413c3.542-0.65,7.098-1.212,10.258-2.034c10.105-2.65,20.308-4.947,30.606-6.702  c9.709-1.664,19.287-3.651,29.072-5.014c0.302-0.041,0.609-0.091,0.905-0.137c-13.925,3.938-27.566,8.441-41.305,13.011  c-2.068,0.692-2.932,3.904-0.649,5.009c4.165,2.034,11.277-1.192,15.423-2.226c10.202-2.55,20.569-4.256,30.915-6.133  c9.854-1.789,19.597-3.948,29.368-5.934c-4.907,1.651-9.908,2.967-14.767,4.905c-2.693,1.075-5.892,1.63-7.79,3.995  c-1.371,1.713-0.803,3.747,1.212,4.577c5.153,2.11,10.449,1.267,15.711,0c8.079-1.946,16.232-3.242,24.476-4.29  c7.223-0.91,14.478-3.254,21.557-4.954c7.981-1.904,15.991-3.706,24.118-5.002C429.183,450.316,427.696,445.04,424.235,445.59z" fill="#B3B3B3"/><g><path d="M113.765,96.378c-7.701,8.263-14.25,17.65-21.384,26.414C86.27,130.288,80,137.921,76.964,147.239   c-0.5,1.549,1.925,2.206,2.426,0.665c3.351-10.312,10.915-18.795,17.781-26.983c6.255-7.461,11.736-15.643,18.37-22.769   C116.644,96.968,114.875,95.186,113.765,96.378z" fill="#1F8AFF"/><path d="M131.628,102.47c-4.474,2.076-5.378,6.187-8.154,9.887c-4.72,6.283-9.284,12.539-13.573,19.11   c-4.179,6.386-9.346,11.936-13.95,17.986c-2.905,3.837-6.667,6.331-8.558,10.757c-0.13,0.267-0.247,0.548-0.363,0.87   c-0.541,1.542,1.871,2.172,2.418,0.665l0.384-0.377c1-0.144,1.103-1.144,0.658-1.823c2.186-3.809,6.154-7.016,8.895-10.305   c3.954-4.748,7.804-9.565,11.395-14.601c3.617-5.098,6.865-10.346,10.62-15.362l5.66-7.544c2.027-2.699,2.281-5.447,5.837-7.091   C134.369,103.957,133.088,101.791,131.628,102.47z" fill="#1F8AFF"/><path d="M136.664,116.304c-4.186,1.932-6.248,6.125-9.353,9.339c-4.611,4.762-8.475,10.271-12.477,15.547   c-4.598,6.05-9.017,12.183-13.471,18.335c-3.384,4.652-9.236,7.325-11.696,12.573c-0.583,1.24,0.912,2.59,1.973,1.528l2.521-2.521   c0.398-0.398,0.432-0.87,0.268-1.274c2.371-2.385,5.399-4.221,7.496-6.9c4.311-5.515,8.044-11.463,12.361-16.985   c3.959-5.057,7.735-10.257,11.853-15.204c3.03-3.645,7.564-10.312,11.786-12.265C139.397,117.79,138.116,115.632,136.664,116.304z" fill="#1F8AFF"/><path d="M139.98,136.886c-3.275,6.996-10.318,12.457-15.478,18.13c-5.995,6.619-10.812,14.17-17.027,20.604   c-1.124,1.165,0.63,2.926,1.782,1.775l1.254-1.261c0.157-0.151,0.253-0.322,0.308-0.493c5.989-6.564,11.004-13.923,16.979-20.508   c4.912-5.413,11.208-10.257,14.355-16.986C142.831,136.694,140.666,135.413,139.98,136.886z" fill="#1F8AFF"/><path d="M161.557,140.395c-8.633,10.778-19.96,19.055-27.867,30.45c-0.83,1.192,0.986,2.507,1.973,1.521   l1.261-1.261c0.273-0.274,0.369-0.589,0.363-0.884c7.674-10.229,18.047-18.061,26.043-28.044   C164.339,140.929,162.571,139.134,161.557,140.395z" fill="#1F8AFF"/><path d="M176.281,142.546c-5.311,0.562-8.167,4.899-10.675,9.195c-4.393,7.523-9.073,14.635-14.307,21.61   c-0.973,1.302,1.212,2.549,2.172,1.275c3.981-5.317,7.846-10.683,11.319-16.355c2.762-4.509,5.427-12.566,11.491-13.21   C177.878,144.896,177.899,142.375,176.281,142.546z" fill="#1F8AFF"/><path d="M209.354,96.378c-8.16,8.181-15.772,16.896-23.898,25.153c-1.138,1.158,0.637,2.939,1.782,1.775   c3.802-3.871,7.385-7.955,11.237-11.786c1.583-1.568,4.049-3.021,5.31-4.823c2.179-3.118,4.673-5.852,7.352-8.544   C212.281,97.002,210.5,95.227,209.354,96.378z" fill="#1F8AFF"/><path d="M223.189,100.147c-22.419,22.542-43.359,47.702-60.571,74.465c-0.883,1.371,1.302,2.631,2.172,1.268   c17.102-26.584,37.898-51.553,60.179-73.952C226.115,100.777,224.333,98.996,223.189,100.147z" fill="#1F8AFF"/><path d="M248.602,99.955c-11.921,9.024-23.563,20.412-31.895,32.834c-5.028,7.496-10.092,14.993-15.348,22.324   c-4.947,6.913-11.08,12.73-16.102,19.5c-0.973,1.302,1.22,2.556,2.179,1.268c4.055-5.481,9.113-10.284,13.299-15.718   c5.097-6.605,9.586-13.669,14.369-20.494c5.234-7.461,10.216-14.19,16.69-20.665c5.934-5.934,11.333-11.771,18.075-16.875   C251.145,101.161,249.891,98.968,248.602,99.955z" fill="#1F8AFF"/><path d="M272.242,98.893c-13.32,11.326-23.784,25.243-34.158,39.207c-5.569,7.509-11.455,14.862-17.512,21.995   c-5.194,6.125-11.367,11.12-15.185,18.294c-0.767,1.432,1.405,2.7,2.166,1.268c4.022-7.55,10.785-13.06,16.273-19.521   c5.242-6.174,10.339-12.573,15.177-19.068c10.689-14.349,21.316-28.744,35.02-40.392C275.256,99.619,273.468,97.852,272.242,98.893   z" fill="#1F8AFF"/><path d="M292.174,99.146c-1.543,2.152-4.434,3.111-6.339,5.03c-3.501,3.521-6.256,7.688-9.551,11.401   c-7.276,8.202-14.464,16.472-21.343,25.016c-12.019,14.93-26.284,28.093-36.98,44.084c-0.898,1.35,1.281,2.61,2.172,1.268   c10.963-16.39,25.688-30.032,38.021-45.359c6.408-7.948,13.148-15.595,19.912-23.235c3.288-3.72,6.146-7.825,9.551-11.401   c2.159-2.261,4.899-2.981,6.722-5.53C295.284,99.092,293.105,97.837,292.174,99.146z" fill="#1F8AFF"/><path d="M315.011,103.929c-28.95,23.159-48.217,55.753-74.212,81.749c-1.151,1.151,0.631,2.926,1.782,1.782   c25.995-26.003,45.277-58.604,74.205-81.763C318.053,104.69,316.258,102.929,315.011,103.929z" fill="#1F8AFF"/><path d="M326.323,112.727c-5.454,5.467-9.983,11.469-15.021,17.28c-5.288,6.105-11.908,11.039-17.676,16.678   c-6.428,6.29-11.937,13.93-17.789,20.754c-4.322,5.036-9.969,9.764-12.592,15.986c-0.631,1.466,1.541,2.754,2.171,1.261   c2.774-6.571,9.215-11.984,13.82-17.349c5.837-6.818,11.388-14.19,17.801-20.473c5.255-5.139,11.019-9.689,16.04-15.074   c5.228-5.598,9.578-11.826,15.026-17.28C329.248,113.357,327.474,111.576,326.323,112.727z" fill="#1F8AFF"/><path d="M328.646,131.85c-15.019,20.302-36.082,36.328-55.15,52.574c-1.233,1.055,0.556,2.823,1.781,1.768   c19.268-16.403,40.378-32.581,55.541-53.074C331.783,131.816,329.598,130.562,328.646,131.85z" fill="#1F8AFF"/><path d="M342.678,142.916c-12.106,12.32-22.919,25.612-35.226,37.726c-1.15,1.144,0.631,2.919,1.782,1.781   c12.306-12.114,23.118-25.42,35.226-37.732C345.597,143.532,343.815,141.751,342.678,142.916z" fill="#1F8AFF"/><path d="M358.656,145.061c-0.383,2.994-2.891,4.858-4.529,7.235c-2.246,3.269-4.487,6.516-6.796,9.736   c-5.318,7.4-10.854,14.602-17.227,21.131c-1.138,1.165,0.645,2.939,1.775,1.775c6.529-6.681,12.155-14.074,17.623-21.638   c2.877-3.995,5.584-8.6,8.784-12.32c1.691-1.953,2.556-3.351,2.891-5.92C361.384,143.45,358.868,143.478,358.656,145.061z" fill="#1F8AFF"/><path d="M395.759,103.73c-4.542,3.275-7.468,8.222-12.038,11.415c-3.687,2.577-7.16,5.495-9.798,9.161   c-0.946,1.315,1.233,2.569,2.172,1.261c2.856-3.96,6.865-6.899,10.866-9.606c3.865-2.604,6.209-7.283,10.065-10.058   C398.328,104.963,397.074,102.778,395.759,103.73z" fill="#1F8AFF"/><path d="M420.659,103.929c-11.958,11.641-25.229,21.836-36.843,33.875c-11.519,11.949-20.549,26.839-27.496,41.837   c-0.685,1.466,1.486,2.74,2.172,1.274c6.9-14.903,15.842-29.339,27.105-41.337c11.442-12.176,24.893-22.241,36.843-33.882   C423.604,104.566,421.823,102.792,420.659,103.929z" fill="#1F8AFF"/><path d="M427.202,115.043c-5.167,2.912-9.175,7.386-12.943,11.895c-5.412,6.482-10.976,12.833-16.787,18.966   c-10.071,10.62-20.144,21.755-28.572,33.739c-0.938,1.329,1.24,2.589,2.166,1.274c3.556-5.057,7.866-9.455,11.538-14.451   c4.975-6.783,10.812-12.758,16.65-18.788c4.852-5.008,9.428-10.292,13.949-15.595c4.571-5.365,9.031-11.354,15.267-14.862   C429.881,116.42,428.621,114.254,427.202,115.043z" fill="#1F8AFF"/><path d="M429.463,137.887c-8.119,6.948-15.136,15.046-22.645,22.638c-7.202,7.284-14.252,14.602-20.316,22.899   c-0.575,0.788,0.213,1.884,1.09,1.884h1.254c1.186,0,1.493-1.336,0.952-2.056c5.674-7.516,12.155-14.293,18.802-20.953   c7.55-7.558,14.52-15.677,22.645-22.632C432.479,138.606,430.689,136.832,429.463,137.887z" fill="#1F8AFF"/><path d="M430.977,156.551c-5.857,3.713-9.503,8.626-13.765,13.937c-4.221,5.249-10.078,8.949-11.971,15.746   c-0.431,1.562,1.988,2.227,2.426,0.665c1.699-6.119,7.257-10.08,11.319-14.628c4.44-4.982,7.469-9.874,13.26-13.546   C433.615,157.86,432.348,155.681,430.977,156.551z" fill="#1F8AFF"/><path d="M110.27,373.768c-0.738-1.445-2.917-0.172-2.165,1.275c1.576,3.033-3.816,8.037-5.036,10.462   c-3.351,6.707-6.708,13.424-10.059,20.123c-0.726,1.445,1.446,2.722,2.172,1.269c3.749-7.502,7.079-15.478,11.792-22.427   C108.736,381.865,111.963,377.021,110.27,373.768z" fill="#1F8AFF"/><path d="M138.158,387.485c-1.35,4.824-3.617,9.142-5.522,13.737c-1.904,4.597-2.672,10.366-5.886,14.212   c-1.034,1.239,0.741,3.028,1.775,1.781c3.083-3.686,3.542-7.982,5.358-12.292c2.336-5.544,5.076-10.957,6.707-16.773   C141.029,386.58,138.604,385.922,138.158,387.485z" fill="#1F8AFF"/><path d="M170.348,395.316c-3.11,3.104-6.152,6.27-8.962,9.669c-3.659,4.42-4.139,8.92-6.324,14.059   c-0.624,1.48,1.535,2.761,2.172,1.27c2.015-4.749,2.646-9.375,5.934-13.547c2.713-3.453,5.865-6.572,8.962-9.676   C173.273,395.939,171.499,394.158,170.348,395.316z" fill="#1F8AFF"/><path d="M200.537,398.668c-6.01,6.097-11.361,12.744-15.293,20.376c-0.734,1.438,1.432,2.715,2.179,1.27   c3.83-7.448,9.023-13.917,14.889-19.866C203.455,399.297,201.673,397.515,200.537,398.668z" fill="#1F8AFF"/><path d="M225.491,398.929c-4.433,8.955-8.332,18.196-13.409,26.825c-0.83,1.403,1.342,2.665,2.166,1.266   c5.076-8.633,8.982-17.862,13.422-26.825C228.383,398.749,226.218,397.476,225.491,398.929z" fill="#1F8AFF"/><path d="M274.324,400.34c-6.454,5.05-10.818,11.963-15.286,18.704c-0.904,1.357,1.281,2.619,2.172,1.27   c4.351-6.572,8.599-13.274,14.889-18.192C277.381,401.127,275.592,399.36,274.324,400.34z" fill="#1F8AFF"/><path d="M299.285,397.242c-4.083,7.522-9.579,14.155-13.416,21.802c-0.727,1.453,1.439,2.727,2.166,1.27   c0.958-1.907,1.959-3.777,3.09-5.593c1.021-1.622,3.097-3.007,3.748-4.762c1.575-4.228,4.46-7.531,6.584-11.442   C302.226,397.091,300.06,395.824,299.285,397.242z" fill="#1F8AFF"/><path d="M329.476,397.242c-4.194,6.106-9.778,11.448-11.868,18.747c-0.453,1.567,1.973,2.226,2.425,0.67   c2.015-7.043,7.565-12.258,11.615-18.143C332.564,397.174,330.378,395.912,329.476,397.242z" fill="#1F8AFF"/><path d="M361.527,395.316c-3.269,3.433-4.852,7.804-6.899,11.99c-0.713,1.453,1.459,2.729,2.172,1.276   c1.938-3.983,3.405-8.231,6.509-11.492C364.433,395.912,362.651,394.139,361.527,395.316z" fill="#1F8AFF"/><path d="M384.811,397.242c-3.509,5.419-5.899,12.43-11.285,16.319c-1.302,0.947-0.048,3.127,1.268,2.175   c5.844-4.221,8.393-11.362,12.195-17.22C387.865,397.146,385.693,395.886,384.811,397.242z" fill="#1F8AFF"/><path d="M346.692,213.997c-0.088,0.041-0.184,0.076-0.279,0.11c-0.192-0.165-0.439-0.288-0.769-0.288   c-0.685,0-1.062,0.465-1.164,0.993c-2.11,0.72-4.51,1.569-5.66,3.241c-2.295,3.372-4.699,5.892-6.386,9.681   c-4.688,10.545-12.368,19.419-19.541,28.387c-1,1.253,0.767,3.049,1.781,1.782c6.099-7.626,12.168-15.266,17.458-23.474   c1.988-3.09,2.845-6.661,4.741-9.812c2.569-4.276,6.674-6.544,11.094-8.449C349.447,215.525,348.166,213.36,346.692,213.997z" fill="#1F8AFF"/><path d="M361.527,227.612c-7.339,8.249-10.866,19.588-16.965,28.764c-0.905,1.357,1.273,2.611,2.172,1.274   c5.94-8.941,9.448-20.253,16.574-28.256C364.392,228.18,362.609,226.399,361.527,227.612z" fill="#1F8AFF"/><path d="M389.846,244.638c-3.035,4.55-6.035,9.21-9.874,13.163c-1.124,1.158,0.652,2.939,1.782,1.781   c3.98-4.104,7.111-8.949,10.264-13.675C392.922,244.549,390.736,243.295,389.846,244.638z" fill="#1F8AFF"/><path d="M126.38,293.903c-0.418,5.187-4.55,9.05-8.016,12.532c-2.495,2.501-2.701,7.234-5.037,10.057   c-1.015,1.242,0.747,3.036,1.782,1.782c3.282-3.98,4.139-9.036,7.756-12.867c3.078-3.254,5.66-6.941,6.03-11.504   C129.024,292.285,126.51,292.301,126.38,293.903z" fill="#1F8AFF"/><path d="M134.767,312.354c-0.042,0.815-0.562,1.557-0.973,2.241c-0.761,1.269-1.542,2.508-2.213,3.838   c-0.733,1.431,1.439,2.704,2.171,1.259c1.172-2.28,3.405-4.673,3.529-7.338C137.355,310.73,134.841,310.737,134.767,312.354z" fill="#1F8AFF"/><path d="M341.041,87.629c-0.37,2.877-4.496,7.215-6.482,9.483c-3.076,3.487-5.316,7.64-6.894,11.99   c-0.555,1.528,1.878,2.179,2.426,0.665c0.987-2.734,2.289-5.214,3.837-7.66c1.056-1.651,4.104-3.871,4.55-5.755   c0.404-1.72,2.411-3.077,3.386-4.509c0.952-1.384,1.473-2.556,1.685-4.213C343.76,86.025,341.24,86.046,341.041,87.629z" fill="#1F8AFF"/><path d="M346.111,109.102c-2.172,7.894-6.791,14.971-11.615,21.495c-0.966,1.309,1.228,2.555,2.173,1.274   c4.961-6.702,9.634-13.992,11.867-22.104C348.968,108.205,346.543,107.533,346.111,109.102z" fill="#1F8AFF"/><path d="M351.27,125.567c-2.788,4.303-4.631,9.401-8.187,13.163c-1.118,1.178,0.664,2.96,1.781,1.781   c3.713-3.946,5.659-9.167,8.578-13.676C354.326,125.471,352.154,124.21,351.27,125.567z" fill="#1F8AFF"/><path d="M154.931,90.65c-1.959,5.167-8.113,7.832-8.428,13.751c-0.082,1.624,2.426,1.611,2.515,0   c0.151-2.816,2.357-4.905,4.145-6.872c1.727-1.884,3.282-3.803,4.193-6.208C157.933,89.801,155.5,89.149,154.931,90.65z" fill="#1F8AFF"/><path d="M155.062,107.122c-3.837,5.865-6.934,12.182-10.065,18.445c-0.727,1.446,1.445,2.721,2.172,1.268   c3.131-6.262,6.229-12.573,10.058-18.438C158.117,107.026,155.945,105.765,155.062,107.122z" fill="#1F8AFF"/><path d="M163.318,122.518c-1.707,4.831-4.502,9.188-8.058,12.861c-1.138,1.158,0.644,2.939,1.767,1.768   c3.879-3.98,6.867-8.715,8.717-13.963C166.277,121.648,163.852,120.997,163.318,122.518z" fill="#1F8AFF"/></g><g><path d="M159.98,151.59c-1.459,0-2.933-0.082-4.372-0.24c-9.57-1.014-20.295-7.825-21.301-18.438l-0.13-1.397   c-1.295-13.608-2.638-27.681-2.213-41.55c0.054-1.589,0.65-2.837,1.788-3.7l0.933-0.712l0.144-1.165   c0.302-2.631,0.569-5.208,0.583-7.894c0.021-4.604,0.191-9.023,2.062-12.463c4.776-8.736,13.107-14.087,22.302-14.307   c0.74-0.027,1.466-0.034,2.193-0.034c7.557,0,16.198,0.938,23.098,7.873c3.158,3.172,3.426,8.009,3.426,13.101v19.322   c0.061,0.74,0.075,1.186,0.013,1.624c-0.013,1.165-0.185,1.919-0.548,2.631l-0.123,0.288l-0.117,0.329l-0.137,0.302l-0.103,0.671   l-0.02,24.502c0,1.473,0.096,3.131,0.199,4.865c0.267,4.543,0.575,9.675-0.986,12.888   C181.832,148.041,169.704,151.59,159.98,151.59L159.98,151.59z M164.085,59.522c-1.453,0-3.001,0.055-4.598,0.185   c-8.701,0.692-13.847,6.784-14.094,16.711c-0.068,2.611-0.371,5.304-0.658,7.9c-0.357,3.179-0.72,6.386-0.72,9.695   c0,1.357-0.411,2.433-1.239,3.275l-0.837,0.843l0.035,1.178c0.158,5.625,0.514,11.024,0.883,16.732l0.131,1.933   c0.062,0.904,0.075,1.938,0.102,3.035c0.138,6.44,0.323,15.163,6.928,18.37c3.288,1.596,6.941,2.433,10.572,2.433   c2.206,0,4.337-0.315,6.345-0.932c7.167-2.261,10.539-4.248,10.539-12.738v-19.651c0-1.446-0.069-2.939-0.137-4.446   c-0.191-4.228-0.39-8.531,0.986-11.922l0.103-0.268l0.096-0.507c0.014-2.521,0.088-4.837,0.157-7.154l0.015-0.322   c0.178-5.639,0.356-11.429-0.199-17.027C178.159,63.503,175.391,59.522,164.085,59.522L164.085,59.522z" fill="#0077BF"/><path d="M349.577,149.966c-0.726,0-1.451-0.02-2.15-0.075c-4.523-0.315-19.562-2.302-23.159-14.601   c-1.961-6.743-2.11-14.067-2.262-21.151c-0.097-4.701-0.192-9.524-0.801-14.266c-0.056-0.445-0.042-0.883,0.027-1.391l0.108-4.179   c0.104-4.338,0.207-8.668-0.116-12.917l-0.04-0.569c-0.371-4.693-0.672-8.407,1.863-11.826c6.688-9.017,11.1-14.985,22.85-15.102   l0.94-0.007c9.064,0,20.144,1.295,25.468,11.381c4.118,7.811,6.091,16.917,6.427,29.538l0.007,0.657l0.315,0.576   c0.781,1.446,1.116,3.577-0.261,5.208l-0.479,0.562l-0.13,0.727c-0.885,4.748-0.966,9.544-1.042,14.183   c-0.138,7.927-0.268,15.416-4.214,22.22C368.522,146.554,358.02,149.966,349.577,149.966L349.577,149.966z M349.098,63.743   c-1.104,0-2.247,0.048-3.432,0.13c-16.35,1.199-15.362,18.644-14.705,30.189c0.117,2.117,0.247,4.303,0.247,6.16   c0.562,4.591,0.638,8.982,0.706,13.231c0.055,3.98,0.116,8.092,0.568,12.251c0.938,8.722,7.271,14.142,16.527,14.142   c3.404,0,6.981-0.74,10.352-2.152c9.771-4.104,9.06-14.91,8.437-24.44c-0.363-5.502-0.741-11.183,0.828-15.115l0.109-0.253   l0.089-0.48l0.035-1.555c0.055-2.234,0.123-4.776-0.062-7.215c-0.275-3.652-1.392-6.688-2.474-9.627   c-0.521-1.412-1.056-2.871-1.48-4.371C362.068,64.867,354.531,63.743,349.098,63.743L349.098,63.743z" fill="#0077BF"/><path d="M317.354,105.06c-0.335,0-0.671-0.035-1.021-0.09c-9.511-1.589-19.885-2.295-33.63-2.295   c-5.934,0-12.168,0.13-17.177,0.24c-5.598,0.11-11.231,0.227-16.664,0.227c-10.408,0-20.945-0.268-31.134-0.521   c-10.312-0.253-20.823-0.514-31.127-0.514c-3.741,0-4.735-3.138-4.735-4.988c0-1.864,0.994-4.995,4.735-4.995   c11.134,0,22.507,0.26,33.513,0.514c11.243,0.26,22.7,0.521,34.067,0.521c4.283,0,8.579-0.048,12.895-0.096l0.623-0.014   c4.529-0.048,9.071-0.11,13.607-0.11c11.449,0,24.948,0.309,38.248,2.528c2.959,0.494,3.426,2.521,3.296,4.132   C322.622,102.285,320.506,105.06,317.354,105.06L317.354,105.06z" fill="#0077BF"/><path d="M304.904,433.256c-8.936,0-17.966-0.302-26.695-0.604c-6.612-0.219-13.436-0.452-20.289-0.555   c-10.893-0.157-21.932-0.876-32.606-1.568c-12.348-0.795-25.044-1.604-37.678-1.604c-11.642,0-23.194-0.96-34.355-1.878   l-0.78-0.054c-3.112-0.261-6.229-0.513-9.36-0.754l-0.692-0.049l-0.617,0.275c-0.562,0.245-1.151,0.37-1.788,0.37   c-0.446,0-0.905-0.062-1.371-0.179c-4.907-1.228-9.908-1.507-14.76-1.774c-5.351-0.302-10.88-0.616-15.998-2.248   c-9.688-3.109-19.679-6.741-26.085-13.979c-9.449-10.675-13.923-23.925-12.958-38.322c0.069-0.972,0.343-1.794,0.864-2.574   l0.446-0.652l0.027-0.781c0.206-5.33,0.158-10.736,0.11-15.958c-0.076-8.852-0.158-17.779,0.876-26.428   c1.871-15.581,2.501-30.668,1.967-47.469c-0.137-4.501-1.096-8.729-2.021-12.827c-0.782-3.438-1.583-6.975-1.83-10.462   c-0.466-6.4-0.453-12.942-0.439-19.274l0.014-59.228c0-1.233,0.335-2.234,1.028-3.056l0.952-1.13l-0.411-1.425   c-0.74-2.556-0.521-4.789-0.048-8.53c0.891-7.153,0.493-17.424-1.007-25.571c-1.815-9.873-0.198-18.733,5.564-30.6   c6.304-12.984,24.907-14.656,40.418-14.656c3.667,0,7.215,0.096,10.511,0.192c2.919,0.082,5.592,0.157,7.956,0.157   c2.713,0,4.994,2.282,4.994,4.982v1.034c0,3.481-2.673,4.714-4.96,4.714c-0.884,0-1.747-0.192-2.502-0.541l-0.52-0.254   l-4.215-0.103c-2.835-0.076-5.837-0.158-8.865-0.158c-15.636,0-32.313,2.104-37.508,17.698c-2.781,8.339-1.554,19.089-0.582,27.729   l0.37,3.282c0.466,4.049,0.856,7.53,0.363,11.408c-0.363,1.768-0.562,3.789-0.555,5.755v0.645l0.287,0.575   c0.986,1.98,0.747,3.988-0.678,5.66l-0.699,0.809l0.041,1.206l0.042,0.308v55.719c0,9.881,1.199,19.343,2.357,28.492   c0.74,5.837,1.487,11.771,1.933,17.745c0.89,11.943-0.028,22.83-0.994,34.349c-0.342,4.028-0.686,8.111-0.959,12.319   c-0.493,7.693-0.527,15.513-0.555,23.075c-0.034,8.457-0.068,17.103-0.74,25.49c-0.069,0.808-0.323,1.721-0.713,2.55l-0.308,0.658   l0.048,0.711c0.753,10.791,5.083,20.953,11.895,27.881c7.571,7.708,21.199,9.976,33.375,11.505   c2.391,0.302,4.714,0.432,6.968,0.562c1.124,0.062,2.152,0.115,3.179,0.199l0.239,0.012l0.432-0.046   c0.658-0.16,1.055-0.214,1.466-0.214l0.342,0.015c42.729,2.746,82.298,4.803,120.949,6.29c4.386,0.164,8.75,0.375,13.108,0.581   l0.534,0.027c9.805,0.474,19.946,0.959,29.997,0.959c7.339,0,13.951-0.252,20.206-0.78c4.502-0.385,8.989-0.814,13.485-1.241   l0.581-0.055c13.163-1.254,26.771-2.55,40.2-2.68c0.904,0,1.659,0.18,2.364,0.558l0.65,0.349l0.747-0.027   c8.257-0.302,18.85-1.22,27.496-5.659c17.206-8.854,19.576-24.394,19.576-39.866c0-18.368,1.377-36.773,2.706-54.58l0.055-0.719   c0.377-5.003,0.755-10.032,1.104-15.068c0.288-4.193,0.938-8.551,1.575-12.771c0.885-5.893,1.797-11.97,1.797-17.945   c0-7.578-0.509-15.176-1.002-22.536c-0.411-6.145-0.828-12.415-0.952-18.567c-0.109-5.921-0.26-11.833-0.403-17.754l-0.034-1.336   c-0.35-14.28-0.706-28.997-0.706-43.468c-0.007-2.988,0.267-6.784,0.541-10.805c1.096-15.821,2.604-37.487-8.675-46.36   c-9.626-7.578-22.904-8.543-33.396-8.543c-3.577,0-7.126,0.123-10.257,0.232l-3.304,0.103c-3.356,0-4.604-2.405-4.638-4.667   c-0.028-1.918,0.96-5.193,4.81-5.31c3.337-0.103,7.476-0.233,11.594-0.233c15.279,0,34.148,1.583,44.434,13.923   c10.86,13.032,10.038,31.183,9.257,48.738c-0.205,4.542-0.391,8.742-0.391,12.86c0,31.443,1.445,62.208,2.7,85.503   c0.768,14.225-1.035,28.462-2.788,42.228c-1.481,11.717-3.017,23.811-3.017,36.015c0,3.679,0.05,7.384,0.096,11.1   c0.289,22.707,0.591,46.119-10.016,66.264c-8.908,16.943-36.294,19.164-56.11,19.362c-0.897,0-1.61-0.156-2.295-0.508l-0.665-0.341   l-0.74,0.042c-8.18,0.368-16.465,1.15-24.481,1.911c-8.784,0.827-17.767,1.679-26.708,2   C313.03,433.194,309.139,433.256,304.904,433.256L304.904,433.256z" fill="#0077BF"/><path d="M431.718,192.084c-31.286,0-62.853-0.528-93.384-1.034c-29.353-0.48-59.563-0.98-89.266-1.028   c-17.288-0.027-34.862-0.795-51.861-1.542c-13.04-0.569-26.366-1.151-39.515-1.412c-3.269-0.061-6.543-0.096-9.818-0.096   c-4.433,0-8.88,0.055-13.319,0.096c-4.454,0.041-8.887,0.082-13.313,0.082c-5.798,0-10.627-0.076-15.219-0.24   c-3.474-0.124-7.125-0.569-10.654-0.994c-4.331-0.534-8.804-1.083-13.218-1.083c-3.74,0-4.741-3.131-4.741-4.981   c0-1.857,1.001-4.995,4.741-4.995c4.728,0,9.648,0.521,14.403,1.021c4.975,0.514,10.059,1.048,15.135,1.048   c4.372,0,8.736-0.027,13.115-0.048c4.366-0.021,8.723-0.048,13.095-0.048c7.735,0,13.977,0.083,19.657,0.247   c11.203,0.336,22.393,0.781,33.581,1.233c18.939,0.747,38.529,1.528,57.906,1.727c21.836,0.232,43.673,0.561,65.517,0.89   c38.377,0.576,78.062,1.165,117.159,1.165c3.727,0,4.728,3.138,4.728,4.995C436.445,188.946,435.444,192.084,431.718,192.084   L431.718,192.084z" fill="#0077BF"/><path d="M166.277,301.563c-7.886,0-14.978-2.74-18.5-7.154c-2.466-3.083-3.208-6.899-2.199-11.339   c2.835-12.532,10.14-23.796,17.211-34.691l2.089-3.213h-2.782c-0.506,0.021-0.835,0.021-1.171,0.021   c-1.604,0-3.254-0.151-4.803-0.315l-1.405-0.15l-0.241,1.396c-1.034,6.113-3.844,9.942-9.387,12.813   c-2.556,1.33-6.332,2.083-10.346,2.083c-4.413,0-8.496-0.891-11.224-2.459c-11.018-6.339-10.88-21.933-10.771-34.472   c0.008-1.138,0.014-2.248,0.014-3.317c0-1.692,0.562-3.083,1.644-4.125l0.233-0.212l0.124-0.281   c2.795-6.605,10.428-9.805,23.323-9.805c11.292,0,22.803,0.692,33.944,1.364c7.263,0.445,14.772,0.897,22.159,1.151   c0.65,0.007,1.178,0.082,1.685,0.219c6.16,1.679,10.552,5.118,13.066,10.237c3.653,7.454,3.18,18.328-1.273,29.093   c-1.384,3.342-2.707,6.982-4.104,10.819c-5.825,16.033-12.43,34.196-27.044,40.459   C173.691,300.892,170.053,301.563,166.277,301.563L166.277,301.563z M149.833,232.332c2.741,0.014,5.481,0.172,8.126,0.315   c2.713,0.157,5.529,0.315,8.379,0.315c5.406,0,9.161,0.658,11.189,3.933l0.145,0.226l0.219,0.172   c1.967,1.514,3.391,4.275,1.474,7.469c-4.085,6.812-8.84,14.669-13.622,21.728c-2.481,3.678-8.921,15.437-5.976,20.979   c0.672,1.269,2.131,2.782,5.25,2.782c2.13,0,4.749-0.679,8.016-2.076c9.216-3.968,14.539-19.527,18.417-30.881   c1.055-3.071,1.959-5.721,2.809-7.77l0.659-1.556c2.514-5.934,6.742-15.861,3.885-22.214c-1.035-2.309-2.877-3.919-5.489-4.789   l-0.206-0.075l-2.268-0.076c-11.511-0.39-23.413-0.807-35.046-1.556c-0.548-0.033-1.548-0.15-2.836-0.301   c-3.64-0.418-9.744-1.124-15.122-1.124c-4.941,0-11.587,0.48-12.396,4.646c-0.096,0.514-0.26,0.994-0.5,1.508l-0.13,0.294   l-0.014,0.575c-0.124,6.735-0.254,14.382,2.426,20.836c1.274,3.049,5.385,3.062,6.741,3.062h0.015c0.801,0,1.568-0.041,2.233-0.075   l0.699-0.041c6.187-0.262,6.111-5.208,6.049-8.826c-0.006-0.473-0.006-0.952-0.006-1.432c0.021-4.248,3.446-5.358,4.494-5.598   c0.912-0.315,1.625-0.453,2.363-0.453H149.833z" fill="#0077BF"/><path d="M165.723,355.59c-2.166,0-4.255-0.979-5.338-2.5c-0.925-1.289-1.089-2.926-0.472-4.715   c2.233-6.469,7.242-11.121,12.552-16.047c2.918-2.707,5.934-5.502,8.427-8.621c6.516-8.159,12.683-16.868,18.644-25.296   c1.857-2.624,3.714-5.248,5.598-7.865c3.639-5.091,6.832-10.469,9.916-15.671c4.728-7.969,9.62-16.205,16.087-23.234   c5.557-6.043,9.812-13.115,13.923-19.938c3.667-6.085,7.456-12.376,12.107-17.809c1.11-1.309,2.398-1.967,3.81-1.967   c2.172,0,4.44,1.631,5.516,3.974c1.07,2.31,0.721,4.755-0.952,6.702c-4.618,5.385-8.27,11.593-11.805,17.595   c-4.118,6.989-8.373,14.224-14.114,20.035c-6.798,6.879-11.799,15.546-16.637,23.933c-2.98,5.187-6.078,10.552-9.524,15.342   c-2.651,3.699-5.125,7.66-7.523,11.497c-4.364,7.009-8.874,14.246-14.621,20.001c-1.426,1.411-3.481,3.158-5.667,4.993   c-5.769,4.874-12.298,10.381-14.032,15.419C170.313,355.178,167.059,355.59,165.723,355.59L165.723,355.59z" fill="#0077BF"/><path d="M280.703,394.494c-5.995-0.008-12.141-0.636-18.096-1.254l-5.982-0.597   c-8.016-0.746-18.006-1.686-23.988-6.42c-9.914-7.838-12.065-16.923-12.436-29.976c-0.329-11.524,0.363-17.021,8.633-25.059   c0.466-0.451,0.986-0.884,1.521-1.301l1.466-1.15l-1.432-1.193c-2.947-2.474-4.838-5.98-5.75-10.729   c-1.877-9.635,1.2-16.145,9.977-21.104l0.418-0.247l0.205-0.438c0.541-1.178,1.925-3.158,5.118-3.158l0.631,0.007   c21.167,0.062,53.164,0.158,61.441,22.987c5.117,14.15-0.014,25.331-16.178,35.219l-4.234,2.596l6.346,0.261   c3.68,0.138,7.14,0.268,10.661,1.207c8.955,2.397,10.291,13.08,10.291,19.232c0,6.125-7.331,17.779-13.43,19.357   C291.365,393.912,286.39,394.494,280.703,394.494L280.703,394.494z M258.84,320.385c3.542,0,5.687,3.227,5.913,6.27   c0.164,2.371-0.822,5.077-4.126,5.551c-8.647,1.232-28.915,4.138-28.441,20.892l0.041,1.61c0.164,7.227,0.376,16.23,6.694,21.228   c4.166,3.3,18.733,4.753,19.351,4.81c1.952,0.191,4.076,0.493,6.303,0.822c4.296,0.608,9.153,1.308,13.744,1.308   c8.675,0,14.548-2.584,17.974-7.895c1.342-2.081,1.617-3.958,0.807-5.575c-1.759-3.517-7.81-4.202-14.388-4.653   c-1.281-0.088-2.392-0.157-2.96-0.274c-6.872-1.315-14.054-1.568-21.001-1.809l-0.698-0.027c-3.111-0.104-5.25-1.823-5.743-4.604   c-0.438-2.523,0.699-5.895,4.242-7.311c10.175-4.071,17.951-7.743,25.222-11.91c5.364-3.069,10.866-11.188,10.517-18.371   c-0.219-4.343-2.514-7.617-6.659-9.475c-12.929-5.797-27.742-6.775-40.528-6.981h-0.411l-0.357,0.198   c-0.384,0.213-0.589,0.336-0.822,0.432c-5.427,2.18-9.071,4.363-6.509,12.69c0.768,2.486,4.077,3.59,10.73,3.59   c2.857,0,5.852-0.206,8.05-0.351C257.119,320.453,258.195,320.385,258.84,320.385L258.84,320.385z" fill="#0077BF"/><path d="M358.69,397.021c-13.354,0-37.007-4.967-40.967-23.568c-2.945-13.875-1.309-24.099,5.166-32.15l1.158-1.438   l-1.644-0.849c-3.098-1.598-7.312-4.125-8.169-7.598c-2.096-8.504-1.787-17.946,0.856-25.907   c5.777-17.419,26.086-19.954,44.668-20.975c0.877-0.047,1.747-0.069,2.617-0.069c18.37,0,33.218,9.998,37.844,25.456   c2.719,9.085,2.321,16.938-1.241,24.707c-0.534,1.158-2.097,3.419-3.939,5.33l-1.18,1.22l1.352,1.036   c3,2.268,5.741,4.687,6.508,9.276c1.35,8.071,0.569,15.992-2.541,25.701C394.91,390.541,381.658,397.021,358.69,397.021   L358.69,397.021z M360.814,296.877c-1.583,0-3.24,0.047-5.009,0.144l-0.698,0.041c-10.052,0.542-26.887,1.445-29.333,14.574   c-1.617,8.702-1.445,13.854,0.527,15.34c2.042,1.529,4.234,2.597,6.352,3.633l1.426,0.706c0.836,0.41,1.507,0.931,2,1.554   l0.198,0.24l0.282,0.152c1.945,1.014,3.343,3.296,3.473,5.666c0.118,2.172-0.862,4.069-2.761,5.33   c-5.057,3.385-8.358,9.004-9.03,15.443c-0.686,6.572,1.474,12.965,5.94,17.534c7.009,7.166,16.615,7.777,25.058,7.777   c1.268,0,2.514-0.02,3.761-0.034c1.2-0.015,2.398-0.034,3.57-0.034c7.146,0,13.826-2.845,18.336-7.797   c4.351-4.775,6.385-11.134,5.748-17.92c-0.555-5.857-3.439-8.049-6.79-10.576c-1.144-0.871-2.329-1.77-3.563-2.906   c-1.445-1.337-2.082-2.939-1.836-4.626c0.303-1.987,1.782-3.892,3.782-4.871l0.651-0.309l0.171-0.7   c0.26-1.108,0.802-1.992,1.617-2.635l0.26-0.199l0.357-0.707c0.562-0.905,1.336-1.693,2.33-2.323l0.191-0.116l0.149-0.179   c4.756-5.645,1.214-19.581-3.527-23.63C376.061,298.308,369.188,296.877,360.814,296.877L360.814,296.877z" fill="#0077BF"/><path d="M358.648,368.498c-1.986,0-3.919-0.409-5.768-1.227c-2.364-1.041-3.775-3.288-3.879-6.146   c-0.109-3.146,1.46-6.132,3.927-7.436c1.733-0.923,3.646-1.403,5.528-1.403c1.426,0,2.811,0.268,4.099,0.81l0.273,0.115h0.295   c0.479,0,0.952,0.042,1.439,0.123c2.863,0.5,5.351,3.77,5.117,6.722c-0.246,3.009-1.802,5.531-4.165,6.736   C363.316,367.929,361.007,368.498,358.648,368.498L358.648,368.498z" fill="#0077BF"/><path d="M355.949,324.899h-0.253c-3.398,0-6.57-2.65-7.05-5.919c-0.199-1.315-0.569-5.742,2.919-7.559   c1.493-0.772,2.851-1.102,4.542-1.102h5.871c3.27,0,6.03,2.761,6.03,6.037c0,3.239-1.624,5.966-4.241,7.111   c-2.232,0.972-4.646,1.431-7.585,1.438L355.949,324.899z" fill="#0077BF"/></g></svg>