<?xml version="1.0" ?><!DOCTYPE svg  PUBLIC '-//W3C//DTD SVG 1.1//EN'  'http://www.w3.org/Graphics/SVG/1.1/DTD/svg11.dtd'><svg enable-background="new 0 0 512 512" height="512px" id="Layer_1" version="1.1" viewBox="0 0 512 512" width="512px" xml:space="preserve" xmlns="http://www.w3.org/2000/svg" xmlns:xlink="http://www.w3.org/1999/xlink"><path d="M453.491,446.006c-15.867,2.543-31.38,6.84-47.044,10.33c-7.012,1.572-14.302,2.068-21.366,3.4  c-4.146,0.791-8.448,2.25-12.729,2.836c1.31-0.414,2.49-0.773,3.311-1.09c5.484-2.115,11.202-3.537,16.822-5.215  c9.269-2.752,19.019-4.115,27.22-9.568c2.257-1.506,1.692-5.943-1.521-5.613c-9.238,0.963-18.688,2.213-27.858,3.814  c-10.292,1.791-20.298,4.906-30.567,6.771c-1.362,0.248-2.724,0.488-4.093,0.744c6.372-1.805,12.744-3.656,18.981-5.883  c3.114-1.113,8.645-2.543,7.93-6.846c-0.211-1.279-1.678-2.242-2.904-2.213c-10.284,0.293-20.365,3.273-30.507,4.785  c-5.169,0.768-10.337,1.475-15.483,2.242c1.249-0.646,2.302-1.453,2.858-2.498c0.971-1.805-0.195-4.799-2.603-4.529  c-21.697,2.482-43.071,6.666-64.407,11.164c2.73-1.285,5.304-2.85,7.561-4.822c2.031-1.768,0.376-5.152-2.121-5.137  c-9.983,0.066-20.11,2.15-30.041,3.234c-11.315,1.219-22.547,3.137-33.689,5.506c-3.875,0.82-7.779,1.574-11.676,2.303  c4.153-1.271,8.298-2.564,12.421-3.928c3.724-1.232,2.182-6.477-1.603-5.807c-8.554,1.527-17.311,1.947-25.903,3.311  c-9.148,1.459-18.041,4.258-27.054,6.318c-2.476,0.572-4.958,1.121-7.433,1.678c6.176-2.023,12.315-4.189,18.176-7.004  c2.708-1.301,1.399-5.764-1.512-5.611c-6.056,0.314-11.774,2.422-17.657,3.715c-6.44,1.416-12.82,2.725-19.185,4.365  c0.173-1.627-0.775-3.355-2.881-3.266c-7.952,0.346-16.484,2.934-24.007,5.439c-6.621,2.195-14.663,3.076-20.238,7.479  c-1.745,1.375-0.752,4.611,1.324,5.025c4.273,0.865,8.336-0.633,12.429-1.77c7.14-1.984,14.67-3.295,21.998-4.438  c1.023-0.166,2.054-0.346,3.077-0.543c-2.49,0.896-4.98,1.77-7.501,2.551c-4.348,1.361-8.712,2.385-12.669,4.725  c-1.753,1.031-2.159,4.273,0,5.191c6.063,2.566,12.474-0.654,18.372-2.73c9.667-3.393,20.636-4.996,30.65-7.252  c5.537-1.242,11.067-2.566,16.597-3.867c-9.299,2.896-18.53,5.98-27.588,9.555c-2.964,1.174-2.836,6.049,0.798,5.912  c4.973-0.195,9.66-1.301,14.377-2.82c5.665-1.828,11.165-3.287,16.995-4.553c11.526-2.496,23.059-4.934,34.69-6.846  c12.233-2,24.225-4.875,36.563-6.379c5.266-0.654,10.54-1.369,15.799-1.994c-0.347,0.074-0.707,0.166-1.038,0.225  c-6.561,1.197-12.933,3.221-19.5,4.418c-5.778,1.053-11.744,3.918-17.334,5.777c-5.289,1.768-10.992,2.604-15.875,5.363  c-3.145,1.77-0.888,6.049,2.31,5.492c29.13-5.047,57.892-12.172,86.924-17.717c-5.943,1.588-11.879,3.205-17.694,5.16  c-3.1,1.047-6.162,2.189-9.231,3.311c-5.439,1.068-10.849,2.363-15.37,4.959c-3.032,1.723-0.963,6.273,2.31,5.492  c5.221-1.25,10.277-3.01,15.317-4.838c3.89-0.73,7.779-1.34,11.255-2.242c11.098-2.904,22.292-5.424,33.607-7.357  c10.66-1.822,21.193-4.018,31.921-5.508c0.339-0.045,0.662-0.105,0.993-0.15c-15.287,4.326-30.273,9.27-45.351,14.295  c-2.271,0.76-3.213,4.279-0.715,5.498c4.582,2.221,12.392-1.309,16.936-2.443c11.21-2.807,22.585-4.672,33.945-6.742  c10.818-1.963,21.517-4.332,32.245-6.516c-5.387,1.807-10.879,3.258-16.213,5.387c-2.957,1.189-6.471,1.791-8.547,4.395  c-1.512,1.873-0.88,4.115,1.324,5.018c5.657,2.318,11.474,1.385,17.251,0c8.87-2.129,17.815-3.559,26.874-4.701  c7.937-1.008,15.896-3.582,23.668-5.439c8.772-2.1,17.574-4.078,26.482-5.5C458.915,451.197,457.29,445.404,453.491,446.006z" fill="#B3B3B3"/><g><g><path d="M152.963,77.001c-5.124,1.128-8.825,7.185-11.834,11.029c-6.259,8.035-12.541,16.04-18.658,24.172    c-13.083,17.402-25.768,35.631-35.24,55.207c-0.774,1.595,1.61,2.994,2.378,1.392c8.035-16.597,18.455-31.937,29.183-46.954    c5.854-8.193,12.03-16.167,18.229-24.105c3.731-4.777,10.051-16.619,16.679-18.071C155.438,79.288,154.701,76.625,152.963,77.001z    " fill="#1F8AFF"/><path d="M170.59,72.999c-9.584,7.23-15.769,17.063-22.6,26.738c-4.138,5.86-8.84,11.383-13.309,16.987    c-4.221,5.274-6.696,11.985-10.149,17.808c-7.004,11.819-15.603,22.848-23.683,33.953c-7.697,10.578-16.16,22.27-19.283,35.164    c-0.421,1.73,2.242,2.46,2.664,0.73c3.062-12.617,11.518-24.083,19.004-34.495c7.591-10.548,15.182-21.065,22.39-31.869    c3.22-4.845,5.815-10.112,8.434-15.288c3.265-6.47,9.043-12.135,13.467-17.846c7.877-10.171,14.008-21.622,24.451-29.491    C173.382,74.331,172.013,71.93,170.59,72.999z" fill="#1F8AFF"/><path d="M195.448,64.715c-10.653,8.125-17.71,20.982-25.549,31.644c-11.691,15.896-23.895,31.41-35.804,47.148    c-11.323,14.964-23.375,29.04-35.353,43.47c-9.682,11.654-18.101,23.766-21.321,38.76c-0.369,1.745,2.287,2.475,2.663,0.737    c3.468-16.145,13.188-28.777,23.661-41.19c10.066-11.939,20.163-23.586,29.514-36.104c10.751-14.385,21.825-28.521,32.629-42.853    c4.822-6.395,9.81-12.669,14.384-19.237c4.98-7.147,9.54-14.625,16.566-19.99C198.239,66.032,196.862,63.64,195.448,64.715z" fill="#1F8AFF"/><path d="M220.019,59.412c-14.821,12.602-26.399,28.152-37.489,44.012c-6.402,9.163-12.632,18.356-19.719,27.023    c-6.733,8.246-14.302,15.754-21.246,23.819c-6.5,7.561-12.722,15.333-18.417,23.51c-6.644,9.547-15.017,18.048-22.33,27.091    c-6.38,7.893-12.353,16.085-17.725,24.692c-5.086,8.125-12,15.039-16.581,23.473c-0.851,1.564,1.535,2.964,2.385,1.399    c4.266-7.854,10.841-14.031,15.543-21.592c6.094-9.78,12.654-18.997,19.899-27.957c6.395-7.907,13.068-15.574,19.576-23.375    c6.824-8.155,12.669-17.161,19.598-25.286c12.82-15.017,26.174-28.965,37.249-45.426c11.977-17.808,24.782-35.465,41.213-49.436    C223.337,60.209,221.373,58.26,220.019,59.412z" fill="#1F8AFF"/><path d="M141.302,179.56c-5.244,5.251-11.315,10.247-15.588,16.318c-6.282,8.923-11.563,18.929-19.192,26.806    c-5.635,5.823-10.299,12.617-15.122,19.095c-5.123,6.891-11.097,13.354-15.212,20.921c-0.857,1.566,1.527,2.957,2.377,1.393    c3.739-6.861,9.073-12.88,13.82-19.072c5.755-7.508,11.127-15.265,17.732-22.081c5.914-6.109,10.27-14.174,14.957-21.223    c5.086-7.651,11.721-13.746,18.184-20.208C144.522,180.251,142.566,178.295,141.302,179.56z" fill="#1F8AFF"/><path d="M132.801,211.601c-8.93,13.181-18.786,26.641-28.973,38.896c-8.253,9.938-17.394,21.192-22.262,33.245    c-0.669,1.656,2.009,2.363,2.664,0.738c5.206-12.895,15.686-22.908,23.337-34.202c8.689-12.805,18.929-24.474,27.618-37.286    C136.194,211.519,133.794,210.134,132.801,211.601z" fill="#1F8AFF"/><path d="M127.497,240.326c-3.385,3.378-7.057,6.583-9.885,10.45c-4.499,6.162-7.734,13.293-12.489,19.244    c-4.424,5.523-8.84,11.045-13.264,16.574c-2.648,3.318-4.326,5.666-4.822,9.945c-0.195,1.77,2.558,1.754,2.761,0    c0.707-6.049,7.004-11.729,10.646-16.287c2.753-3.432,6.244-6.861,8.509-10.639c6.071-10.104,12.135-18.973,20.494-27.339    C130.709,241.018,128.753,239.069,127.497,240.326z" fill="#1F8AFF"/><path d="M127.136,265.793c-1.851,4.559-5.635,7.221-7.854,11.404c-2.738,5.168-6.47,9.848-9.961,14.506    c-6.29,8.41-10.518,18.281-15.182,27.617c-0.797,1.588,1.58,2.986,2.377,1.4c5.101-10.195,9.878-20.523,16.747-29.695    c3.611-4.814,6.462-11.375,10.653-15.611c2.618-2.633,4.492-5.461,5.891-8.885C130.476,264.875,127.805,264.166,127.136,265.793z" fill="#1F8AFF"/><path d="M135.788,285.895c-6.605,8.133-12.068,17.055-17.989,25.678c-5.078,7.395-8.351,14.377-9.998,23.277    c-0.316,1.736,2.347,2.482,2.67,0.729c1.573-8.531,4.748-15.559,9.713-22.615c5.898-8.357,11.089-17.152,17.544-25.113    C138.842,286.48,136.901,284.51,135.788,285.895z" fill="#1F8AFF"/><path d="M146.629,307.275c-3.86,8.758-13.083,14.77-18.237,22.85c-5.304,8.297-8.72,16.672-12.286,25.82    c-0.647,1.662,2.023,2.369,2.663,0.729c1.399-3.58,2.686-7.207,4.101-10.781c2.068-5.25,5.244-9.494,7.907-14.377    c4.68-8.568,14.264-13.842,18.237-22.84C149.729,307.057,147.343,305.65,146.629,307.275z" fill="#1F8AFF"/><path d="M159.042,319.32c-9.893,16.83-21.66,31.824-29.146,50.053c-0.669,1.648,2.001,2.355,2.671,0.73    c7.38-17.988,19.094-32.779,28.859-49.383C162.337,319.178,159.945,317.793,159.042,319.32z" fill="#1F8AFF"/><path d="M171.479,338.664c-4.07,6.289-9.6,11.428-14.001,17.477c-4.567,6.281-8.689,12.887-12.241,19.809    c-0.82,1.58,1.565,2.979,2.385,1.385c3.574-6.975,7.998-13.234,12.241-19.803c4.047-6.273,9.923-11.172,14.001-17.484    C174.833,338.551,172.434,337.166,171.479,338.664z" fill="#1F8AFF"/><path d="M186.525,347.27c-0.782,4.16-4.514,6.658-6.763,10.037c-2.656,3.973-5.251,7.996-7.998,11.908    c-3.777,5.357-8.215,10.172-10.488,16.432c-0.226,0.625,0.173,1.197,0.632,1.557c0.135,0.092,0.263,0.197,0.391,0.301    c1.414,1.084,2.784-1.316,1.392-2.391c1.076,0.834,3.935-5.779,4.168-6.162c2.182-3.469,5.018-6.539,7.373-9.9    c3.197-4.521,5.8-9.842,9.713-13.807c2.084-2.105,3.701-4.303,4.243-7.236C189.512,346.262,186.849,345.518,186.525,347.27z" fill="#1F8AFF"/><path d="M198.209,357.494c-6.719,4.145-12.677,8.961-17.356,15.371c-4.612,6.311-10.247,10.689-12.278,18.598    c-0.444,1.73,2.219,2.459,2.656,0.736c1.874-7.275,7.155-10.396,10.909-16.242c4.424-6.869,10.57-11.82,17.462-16.078    C201.113,358.945,199.729,356.561,198.209,357.494z" fill="#1F8AFF"/><path d="M214.504,361.857c-12.195,12.016-26.114,22.639-32.117,39.279c-0.497,1.34,1.376,2.273,2.302,1.34    l1.384-1.377c0.602-0.602,0.459-1.354,0.016-1.852c6.304-14.633,19.237-24.465,30.364-35.441    C217.724,362.557,215.776,360.602,214.504,361.857z" fill="#1F8AFF"/><path d="M231.078,365.996c-11.586,11.855-20.531,25.873-30.605,38.955c-1.083,1.406,1.317,2.777,2.385,1.393    c9.931-12.895,18.755-26.709,30.168-38.393C234.275,366.68,232.319,364.725,231.078,365.996z" fill="#1F8AFF"/><path d="M249.879,367.381c-2.964,3-5.198,6.574-8.17,9.547c-3.04,3.047-6.207,5.928-8.788,9.373    c-6.086,8.111-13.963,16.477-17.92,25.881c-0.692,1.641,1.979,2.348,2.663,0.736c3.514-8.365,10.69-15.963,16.085-23.148    c2.987-3.98,6.41-7.389,9.916-10.895c3.001-2.994,5.176-6.521,8.17-9.547C253.084,368.064,251.136,366.109,249.879,367.381z" fill="#1F8AFF"/><path d="M259.193,377.656c-0.617,3.107-4.627,7.51-6.403,10.127c-2.656,3.883-5.981,7.133-8.765,10.895    c-4.506,6.07-11.511,13.021-12.504,20.771c-0.226,1.768,2.536,1.746,2.761,0c0.587-4.574,4.221-8.404,6.801-11.977    c3.152-4.387,6.297-8.607,9.848-12.693c2.475-2.836,4.551-6.025,6.636-9.154c1.692-2.529,3.693-4.229,4.288-7.238    C262.195,376.648,259.539,375.904,259.193,377.656z" fill="#1F8AFF"/><path d="M277.783,380.975c-14.633,10.193-24.421,27.023-33.645,41.928c-0.94,1.52,1.452,2.904,2.385,1.393    c8.931-14.445,18.5-31.08,32.651-40.936C280.627,382.344,279.243,379.951,277.783,380.975z" fill="#1F8AFF"/><path d="M302.964,371.172c-1.407,0.195-1.836,1.008-2.272,2.174c-7.546,8.059-14.46,17.139-21.141,25.82    c-6.289,8.186-13.768,17.168-17.597,26.828c-0.654,1.656,2.017,2.363,2.663,0.73c3.897-9.826,11.955-19.561,18.575-27.693    c6.951-8.531,13.459-17.643,21.118-25.557C305.364,372.398,304.266,370.984,302.964,371.172z" fill="#1F8AFF"/><path d="M328.882,363.023c-10.54,6.906-18.402,16.566-26.438,26.113c-4.243,5.041-8.283,10.262-12.232,15.537    c-3.973,5.326-6.951,11.586-11.33,16.566c-1.174,1.338,0.774,3.295,1.956,1.955c2.889-3.295,4.8-7.191,7.245-10.795    c4.145-6.125,8.734-11.926,13.339-17.703c8.486-10.639,17.371-21.758,28.852-29.297    C331.756,364.438,330.371,362.039,328.882,363.023z" fill="#1F8AFF"/><path d="M354.483,347.27c-2.986,7.08-9.193,13.475-14.023,19.357c-5.334,6.508-11.247,12.422-17.025,18.531    c-5.748,6.062-11.135,12.488-16.559,18.846c-3.536,4.131-8.013,8.373-10.254,13.369c-0.422,0.926,0.053,2.076,1.188,2.076h1.384    c1.46,0,1.7-1.844,0.76-2.506c3.018-5.326,8.479-10.533,12.286-14.979c5.372-6.281,10.818-12.48,16.559-18.424    c5.831-6.043,11.398-12.197,16.688-18.727c4.228-5.221,9.035-10.578,11.661-16.807C357.839,346.367,355.161,345.66,354.483,347.27    z" fill="#1F8AFF"/><path d="M383.072,328.355c-5.439,0.986-9.261,8.164-11.773,12.504c-5.35,9.27-12.105,17.289-18.071,26.1    c-6.485,9.568-13.964,18.439-21.186,27.453c-5.718,7.139-12.549,14.219-14.844,23.291c-0.437,1.73,2.219,2.469,2.663,0.738    c2.348-9.27,9.894-16.777,15.739-24.076c5.296-6.605,10.63-13.172,15.693-19.967c5.356-7.162,10.849-14.309,15.882-21.711    c2.904-4.266,5.116-9.533,8.494-13.422c2.497-2.859,3.874-7.479,8.133-8.246C385.556,330.703,384.811,328.041,383.072,328.355z" fill="#1F8AFF"/><path d="M458.411,232.042c-5.115,5.537-8.645,12.315-12.978,18.462c-5.868,8.306-11.45,16.822-17.604,24.933    c-11.225,14.805-21.043,30.801-31.778,45.982c-6.215,8.795-12.03,17.484-19.17,25.602c-6.041,6.885-11.06,13.949-15.769,21.811    c-4.838,8.057-8.705,16.627-13.49,24.721c-3.746,6.336-10.021,12.451-11.097,20.014c-0.24,1.736,2.423,2.49,2.663,0.729    c1.114-7.816,8.133-14.812,12.045-21.426c4.379-7.41,7.945-15.197,12.256-22.639c4.875-8.41,10.623-15.873,17.025-23.172    c6.185-7.033,11.255-14.549,16.536-22.268c10.164-14.807,20.32-29.627,30.53-44.389c5.16-7.463,10.66-14.715,15.821-22.18    c5.499-7.936,10.42-17.152,16.965-24.232C461.579,232.689,459.63,230.726,458.411,232.042z" fill="#1F8AFF"/><path d="M466.71,249.993c-20.795,25.091-38.986,52.136-58.472,78.212c-10.18,13.604-20.982,26.611-30.786,40.492    c-2.438,3.445-4.859,6.883-7.319,10.307c-1.791,2.512-4.876,5.453-5.981,8.32c-2.017,5.207-6.5,8.697-8.291,13.812    c-0.587,1.686,2.084,2.4,2.671,0.738c1.407-4.041,5.425-7.502,7.343-11.422c3.544-7.252,9.307-13.773,13.956-20.373    c9.313-13.166,19.516-25.578,29.251-38.436c20.027-26.453,38.384-54.131,59.577-79.703    C469.779,250.58,467.846,248.624,466.71,249.993z" fill="#1F8AFF"/><path d="M463.941,280.373c-7.645,7.838-13.903,16.641-19.794,25.842c-6.764,10.555-14.423,20.531-21.953,30.568    c-7.982,10.645-16.725,20.553-25.166,30.83c-3.25,3.957-6.364,8.02-9.337,12.188c-1.963,2.762-3.731,5.658-5.446,8.576    c-1.279,2.168-1.761,5.523-4.702,6.268c-1.723,0.436-0.993,3.1,0.737,2.664c2.565-0.641,3.642-2.221,4.913-4.521    c3.017-5.455,6.116-10.617,9.833-15.656c8.335-11.316,18.093-21.51,26.723-32.615c7.32-9.426,14.271-19.131,21.396-28.709    c8.358-11.254,14.851-23.314,24.752-33.479C467.139,281.049,465.183,279.094,463.941,280.373z" fill="#1F8AFF"/><path d="M447.367,319.043c-8.351,9.148-15.837,19.418-23.33,29.281c-3.897,5.137-7.531,10.457-11.413,15.602    c-3.656,4.854-7.96,9.555-11.044,14.785c-0.91,1.541,1.475,2.926,2.377,1.391c2.664-4.498,6.621-8.645,9.668-12.947    c3.648-5.146,7.463-10.277,11.225-15.371c7.696-10.404,15.739-21.223,24.474-30.785    C450.52,319.689,448.571,317.727,447.367,319.043z" fill="#1F8AFF"/><path d="M242.754,52.776c-9.103,12.15-19.154,23.315-28.656,35.134c-4.461,5.553-8.788,11.195-13.527,16.506    c-3.205,3.596-6.779,7.298-7.674,12.218c-0.309,1.745,2.354,2.49,2.663,0.737c1.159-6.402,7.403-11.353,11.39-16.13    c4.138-4.965,8.073-10.126,12.143-15.145c4.235-5.236,8.689-10.262,13.399-15.069c4.777-4.853,8.562-11.39,12.654-16.852    C246.208,52.753,243.815,51.376,242.754,52.776z" fill="#1F8AFF"/><path d="M267.424,49.337c-0.865,6.448-9.172,13.399-13.128,18.35c-4.808,6.019-9.472,12.173-14.738,17.8    c-7.915,8.457-18.079,15.506-24.421,25.293c-0.564,0.873,0.173,2.122,1.189,2.084c2.023-0.075,3.182-0.398,4.837-1.572    c1.399-0.971,0.173-3.19-1.219-2.453c8.042-10.518,19.756-18.492,28.017-28.83c4.98-6.222,9.945-12.436,14.918-18.65    c3.213-4.018,6.583-6.65,7.306-12.022C270.426,47.57,267.657,47.6,267.424,49.337z" fill="#1F8AFF"/><path d="M285.788,52.505c-7.938,6.801-12.421,15.927-18.184,24.436c-7.742,11.42-16.943,21.817-26.009,32.185    c-1.166,1.324,0.677,3.22,1.956,1.956l4.138-4.152c0.331-0.324,0.429-0.708,0.391-1.061c6.063-7.004,12.015-14.091,17.59-21.501    c7.44-9.901,12.533-21.735,22.073-29.913C289.099,53.295,287.127,51.354,285.788,52.505z" fill="#1F8AFF"/><path d="M303.333,57.621h-1.377c-1.227,0-1.588,1.302-1.121,2.122c-5.319,6.079-9.104,13.015-13.723,19.651    c-5.628,8.073-12.993,14.618-18.116,23.104c-0.918,1.527,1.475,2.919,2.385,1.392c4.664-7.727,10.991-14.084,16.604-21.096    c5.891-7.38,9.728-15.889,16.325-22.811C305.138,59.118,304.559,57.621,303.333,57.621z" fill="#1F8AFF"/><path d="M311.668,69.688c-2.52,7.312-10.089,12.271-14.934,18.033c-5.243,6.237-10.683,12.21-15.31,18.921    c-1.009,1.475,1.384,2.852,2.385,1.392c5.342-7.749,11.804-14.535,17.747-21.817c4.432-5.439,10.375-8.855,12.775-15.799    C314.919,68.733,312.248,68.011,311.668,69.688z" fill="#1F8AFF"/><path d="M333.351,70.095c-5.417,0.888-9.238,7.704-12.323,11.676c-7.02,9.058-14.775,17.8-22.811,25.971    c-1.257,1.279,0.662,3.182,1.948,1.956c0.602-0.324,1.196-0.655,1.791-0.979c1.196-0.06,1.564-1.324,1.15-2.114    c6.192-6.561,12.008-13.459,17.778-20.388c3.31-3.965,7.749-12.564,13.203-13.452C335.833,72.479,335.089,69.816,333.351,70.095z" fill="#1F8AFF"/><path d="M344.071,75.76c-1.986,1.429-2.866,2.814-3.942,5.048c-1.963,4.07-7.523,7.373-10.321,10.991    c-5.289,6.832-13.369,11.872-18.004,18.981c-0.677,1.054,0.444,2.325,1.564,2.039c1.43-0.376,2.709-1.016,4.139-1.392    c1.572-0.407,1.098-2.626-0.301-2.679c1.715-1.625,3.588-3.115,5.229-4.755c3.28-3.28,6.387-6.658,9.329-10.239    c2.52-3.084,5.356-5.823,8.178-8.644c2.091-2.091,3.159-5.267,5.521-6.967C346.893,77.122,345.523,74.729,344.071,75.76z" fill="#1F8AFF"/><path d="M357.388,81.786c-4.228,7.802-10.758,13.67-16.355,20.434c-4.304,5.199-9.562,9.051-11.413,15.807    c-0.467,1.723,2.204,2.445,2.671,0.729c1.911-6.997,8.854-12.579,13.55-17.936c5.018-5.74,10.269-10.878,13.926-17.642    C360.615,81.605,358.23,80.221,357.388,81.786z" fill="#1F8AFF"/><path d="M380.673,83.862c-7.02,0.768-11.376,7.508-14.979,12.917c-6.282,9.435-14.046,17.725-19.357,27.814    c-0.835,1.58,1.55,2.972,2.385,1.399c4.552-8.652,11.308-15.385,16.574-23.48c3.551-5.455,8.08-15.099,15.378-15.889    C382.426,86.435,382.44,83.674,380.673,83.862z" fill="#1F8AFF"/><path d="M392.74,92.198c-8.697,3.325-15.408,9.735-21.389,16.694c-6.975,8.125-14.348,13.888-18.244,24.315    c-0.527,1.407,1.354,2.174,2.302,1.347c0.715-0.346,1.437-0.685,2.151-1.023c1.633-0.437,1.054-2.829-0.488-2.679    c3.4-7.245,8.749-13.256,14.911-18.395c2.708-2.257,4.897-5.672,7.44-8.178c4.048-4.018,8.712-7.373,14.046-9.419    C395.117,94.229,394.402,91.566,392.74,92.198z" fill="#1F8AFF"/><path d="M405.936,99.458c-5.627,5.59-12.571,10.314-18.598,15.581c-8.155,7.132-15.227,15.408-22.825,23.089    c-1.091,1.091,0.323,3.039,1.662,2.167c1.775-1.159,3.77-1.603,5.53-2.761c1.098-0.722,0.616-2.219-0.309-2.542    c5.243-5.477,10.404-11.022,15.941-16.22c6.576-6.185,14.197-11.044,20.554-17.356C409.156,100.158,407.2,98.202,405.936,99.458z" fill="#1F8AFF"/><path d="M411.104,108.358c-0.76,3.822-5.936,6.41-8.464,9.118c-2.986,3.198-5.206,7.117-8.027,10.473    c-6.335,7.553-12.737,15.039-19.057,22.608c-1.129,1.347,0.677,3.228,1.956,1.956l2.761-2.769    c0.309-0.309,0.414-0.655,0.399-0.993c6.305-7.493,12.646-14.964,18.929-22.48c3.287-3.935,5.748-7.621,9.667-11.044    c2.189-1.926,3.92-3.205,4.499-6.139C414.121,107.35,411.458,106.605,411.104,108.358z" fill="#1F8AFF"/><path d="M419.749,120.178c-7.335,7.328-13.564,15.152-19.682,23.541c-3.114,4.273-5.943,8.908-9.637,12.714    c-1.633,1.678-3.469,3.506-4.184,5.786c-0.309,1,0.707,1.986,1.7,1.692c2.039-0.602,3.228-1.647,4.748-3.114    c0.819-0.783,0.323-1.858-0.475-2.212c0.753-0.715,1.49-1.43,2.069-2.212c2.769-3.724,5.462-7.508,8.17-11.263    c5.838-8.118,12.173-15.912,19.237-22.984C422.961,120.862,421.005,118.914,419.749,120.178z" fill="#1F8AFF"/><path d="M426.655,133.983c-4.672,5.936-8.968,12.12-13.016,18.492c-4.394,6.899-9.6,13.211-13.451,20.464    c-0.73,1.384,1.022,2.761,2.174,1.663c0.595-0.316,1.196-0.647,1.783-0.971c1.61-0.083,1.753-2.332,0.451-2.693    c3.205-5.168,7.027-9.885,10.194-15.099c4.198-6.906,8.825-13.55,13.812-19.899C429.688,134.555,427.754,132.583,426.655,133.983z    " fill="#1F8AFF"/><path d="M433.336,148.074c-9.269,14.994-20.899,28.476-28.995,44.192c-0.707,1.377,1.023,2.814,2.167,1.678    l1.384-1.384c0.467-0.474,0.489-1.039,0.271-1.505c7.989-14.603,18.809-27.43,27.565-41.589    C436.661,147.946,434.276,146.562,433.336,148.074z" fill="#1F8AFF"/><path d="M444.606,162.978c-13.407,13.474-21.518,30.725-33.148,45.584c-1.083,1.384,0.857,3.355,1.956,1.956    c11.602-14.836,19.779-32.155,33.141-45.584C447.818,163.678,445.862,161.729,444.606,162.978z" fill="#1F8AFF"/><path d="M449.91,178.454c-7.516,11.217-14.272,23.059-21.961,34.118c-6.124,8.817-14.038,16.281-16.845,26.979    c-0.451,1.723,2.204,2.453,2.663,0.737c2.882-10.939,11.398-18.876,17.68-27.927c7.306-10.51,13.7-21.848,20.848-32.516    C453.303,178.363,450.896,176.986,449.91,178.454z" fill="#1F8AFF"/><path d="M451.302,197.789c-2.588,5.838-9.051,10.578-13.016,15.604c-4.243,5.394-7.944,11.066-11.789,16.724    c-7.914,11.646-17.529,21.931-24.917,33.96c-0.94,1.527,1.452,2.92,2.377,1.4c7.389-12.008,16.822-22.473,24.925-33.968    c4.83-6.854,9.404-13.715,14.641-20.306c3.333-4.19,7.93-6.989,10.156-12.022C454.394,197.57,452.017,196.171,451.302,197.789z" fill="#1F8AFF"/><path d="M462.843,208.344c-12.24,7.147-21.179,18.063-29.627,29.206c-5.033,6.636-9.788,13.256-14.068,20.412    c-3.822,6.371-9.39,12.006-12.188,18.875c-0.669,1.656,2.001,2.363,2.663,0.738c1.49-3.656,3.837-6.312,6.553-9.059    c2.235-2.25,3.739-6.418,5.357-9.164c3.874-6.59,8.23-12.639,12.812-18.733c8.532-11.337,17.455-22.63,29.891-29.897    C465.77,209.833,464.377,207.441,462.843,208.344z" fill="#1F8AFF"/><path d="M216.912,177.408c-4.551,12.293-16.25,20.057-19.335,33.141c-0.414,1.738,2.25,2.475,2.664,0.737    c3.062-12.985,14.783-20.855,19.327-33.141C220.192,176.467,217.521,175.752,216.912,177.408z" fill="#1F8AFF"/><path d="M231.928,179.56c-5.755,4.815-8.463,11.578-12.752,17.544c-2.799,3.867-4.98,8.178-7.147,12.429    c-1.475,2.904-4.356,4.777-5.312,7.922c-0.527,1.708,2.137,2.43,2.656,0.729c0.828-2.67,3.769-4.709,5.048-7.26    c1.768-3.543,3.671-6.989,5.755-10.36c3.987-6.44,7.862-14.159,13.7-19.057C235.246,180.364,233.275,178.423,231.928,179.56z" fill="#1F8AFF"/><path d="M240.001,182.599c-4.559,8.17-9.352,16.205-12.865,24.902c-2.129,5.289-3.16,10.992-6.47,15.739    c-1.806,2.581-4.92,5.793-5.575,9.164c-0.09,0.173-0.143,0.376-0.143,0.609v0.617c0,1.783,2.769,1.783,2.769,0    c0-4.221,5.868-9.148,7.583-12.857c1.557-3.363,2.573-7.004,3.769-10.51c3.167-9.276,8.569-17.763,13.309-26.271    C243.251,182.433,240.866,181.049,240.001,182.599z" fill="#1F8AFF"/><path d="M249.104,190.25c-3.423,0.519-5.379,2.558-6.621,5.8c-2.708,7.064-7.252,13.038-10.773,19.696    c-2.806,5.304-4.626,10.789-6.395,16.521c-1.798,5.876-5.567,11.195-6.222,17.319c-0.188,1.768,2.573,1.753,2.761,0    c0.459-4.281,3.295-8.569,4.815-12.594c1.768-4.694,2.949-9.585,4.709-14.287c2.107-5.635,5.673-10.841,8.84-15.927    c2.287-3.671,4.965-13.166,9.622-13.858C251.602,192.65,250.85,189.994,249.104,190.25z" fill="#1F8AFF"/><path d="M256.379,192.966c-0.437,6.267-5.289,11.736-7.96,17.221c-2.979,6.146-5.093,12.685-8.132,18.801    c-6.884,13.835-13.234,27.934-19.621,41.995c-0.737,1.611,1.647,3.018,2.377,1.4c6.741-14.814,13.474-29.627,20.719-44.192    c3.325-6.673,5.552-13.843,8.998-20.486c2.603-5.048,5.974-8.93,6.388-14.738C259.261,191.183,256.507,191.198,256.379,192.966z" fill="#1F8AFF"/><path d="M271.523,192.597c-0.331-1.753-2.986-1.008-2.663,0.73c0.94,5.041-3.754,12.105-5.831,16.612    c-2.144,4.649-3.881,9.479-5.213,14.422c-0.467,1.723,2.197,2.453,2.655,0.73c1.934-7.132,4.943-13.843,8.005-20.554    C270.282,200.58,272.358,197.051,271.523,192.597z" fill="#1F8AFF"/><path d="M277.091,202.626c-0.323,4.183-2.828,6.929-4.093,10.691c-1.422,4.235-2.994,8.291-5.387,12.097    c-0.947,1.512,1.444,2.896,2.393,1.392c2.708-4.318,3.762-9.073,6.094-13.527c1.821-3.476,3.453-6.673,3.762-10.653    C279.995,200.851,277.234,200.866,277.091,202.626z" fill="#1F8AFF"/><path d="M286.759,206.779c-0.008,3.897-0.843,7.192-1.708,10.954c-1.196,5.251-1.896,9.999-5.003,14.588    c-1.008,1.482,1.392,2.851,2.385,1.392c2.874-4.235,4.018-8.614,4.95-13.587c0.88-4.635,2.129-8.584,2.145-13.347    C289.534,204.996,286.773,204.996,286.759,206.779z" fill="#1F8AFF"/><path d="M242.754,253.033c-4.123,5.754-6.899,12.911-7.087,20.034c-0.053,1.783,2.708,1.77,2.761,0    c0.173-6.658,2.866-13.277,6.718-18.635C246.185,252.972,243.793,251.603,242.754,253.033z" fill="#1F8AFF"/><path d="M253.663,257.509c-2.016,8.132-9.284,13.7-9.72,22.458c-0.075,1.789,2.686,1.775,2.769,0    c0.406-8.322,7.681-13.896,9.622-21.729C256.763,256.508,254.1,255.771,253.663,257.509z" fill="#1F8AFF"/><path d="M263.331,264.408c-2.708,6.5-6.711,12.398-8.283,19.334c-0.392,1.738,2.272,2.469,2.663,0.738    c1.564-6.914,5.59-12.85,8.291-19.336C266.679,263.506,264.016,262.791,263.331,264.408z" fill="#1F8AFF"/><path d="M279.905,258.885c-2.559,9.871-10.044,17.643-12.429,27.627c-0.406,1.73,2.249,2.459,2.663,0.729    c2.393-9.998,9.87-17.732,12.436-27.617C283.02,257.893,280.356,257.162,279.905,258.885z" fill="#1F8AFF"/><path d="M301.956,228.868c-0.609,5.221-5.056,12.127-7.178,16.912c-1.993,4.484-3.844,9.013-5.665,13.564    c-3.604,9.014-9.494,19.193-10.638,28.912c-0.203,1.762,2.558,1.746,2.761,0c0.572-4.859,3.213-9.855,5.019-14.369    c2.452-6.131,4.912-12.27,7.365-18.409c2.257-5.65,4.853-11.149,7.229-16.747c1.527-3.619,3.4-5.868,3.867-9.863    C304.92,227.107,302.159,227.122,301.956,228.868z" fill="#1F8AFF"/><path d="M301.956,255.109c-0.286,2.159-1.43,4.409-2.362,6.319c-1.874,3.814-2.303,8.021-4.003,11.926    c-3.062,7.041-5.267,15.543-6.063,23.186c-0.188,1.77,2.573,1.762,2.761,0c0.881-8.434,4.537-16.438,6.861-24.488    c1.641-5.748,4.785-10.99,5.567-16.942C304.95,253.348,302.182,253.364,301.956,255.109z" fill="#1F8AFF"/><path d="M313.053,261.646c-2.679,7.576-6.071,14.393-8.291,22.096c-1.798,6.244-6.259,11.781-6.951,18.328    c-0.181,1.76,2.58,1.744,2.761,0c0.654-6.17,5.078-11.662,6.861-17.59c2.272-7.561,5.635-14.604,8.283-22.104    C316.311,260.699,313.64,259.984,313.053,261.646z" fill="#1F8AFF"/><path d="M318.522,278.59c-0.55,5.484-3.709,11.111-5.199,16.49c-1.414,5.123-3.791,9.998-5.8,14.904    c-0.67,1.654,2.009,2.361,2.671,0.736c2.302-5.643,4.77-11.193,6.395-17.078c1.414-5.131,4.152-9.705,4.702-15.053    C321.464,276.814,318.703,276.836,318.522,278.59z" fill="#1F8AFF"/></g><g><path d="M274.172,381.486c-18.259,0-44.771-2.355-67.409-13.543c-16.973-8.395-34.524-17.838-46.396-32.785    c-7.877-9.932-19.328-24.91-27.769-40.273c-7.208-13.121-8.065-32.771-8.095-46.412c0-2.099-0.022-4.221-0.03-6.365    c-0.135-15.806-0.255-32.125,4.492-46.449c13.023-39.182,32.305-63.37,60.698-76.122c14.813-6.658,35.307-12.218,52.22-14.159    c1.076-0.121,2.212-0.256,3.386-0.406c4.717-0.58,10.059-1.249,15.242-1.249c4.13,0,7.554,0.421,10.487,1.279l0.143,0.038    l0.15,0.022c2.01,0.196,4.025,0.361,6.042,0.527c5.921,0.497,12.045,0.993,17.718,2.468c4.228,1.091,8.44,2.242,12.661,3.385    c5.59,1.527,11.18,3.047,16.808,4.454c6.771,1.7,12.864,5.966,18.748,10.096c2.934,2.046,5.974,4.183,9.043,5.951    c8.178,4.717,16.649,9.593,24.226,16.206c12.413,10.826,22.352,30.033,27.084,43.184c4.958,13.768,7.583,29.101,7.583,44.328    c0,31.876-1.708,65.122-22.059,90.483c-4.018,5.01-10.69,10.104-16.589,14.588c-1.745,1.332-3.438,2.617-4.973,3.836    c-4.589,3.65-9.284,6.516-14.257,9.549c-1.836,1.113-3.687,2.234-5.537,3.414c-2.054,1.295-4.123,2.648-6.222,4.018    c-12.008,7.832-24.421,15.936-38.121,17.891C293.921,380.795,284.073,381.486,274.172,381.486L274.172,381.486z M262.18,114.354    c-2.317,0-4.732,0.241-6.861,0.459c-1.475,0.15-2.874,0.293-4.107,0.338c-10.608,0.429-20.14,3.167-30.244,6.071    c0,0-4.544,1.287-6.267,1.775c-15.611,4.379-30.342,8.517-42.943,20.313c-25.166,23.556-36.842,55.658-36.767,101.016    c0.03,15.068,0.067,35.705,8.907,49.314c1.46,2.266,2.942,4.59,4.446,6.945c7.674,12.09,15.626,24.602,25.662,33.975    c23.601,22.051,54.612,33.328,97.586,35.512c3.204,0.156,6.131,0.24,8.93,0.24c18.967,0,33.08-3.74,47.187-12.496    c3.514-2.176,7.223-4.26,11.157-6.463c12.248-6.869,24.91-13.971,32.997-24.82c1.821-2.453,3.837-4.287,5.786-6.057    c3.234-2.949,6.59-5.996,8.907-11.713c0.91-2.219,2.325-4.244,3.822-6.373c2.099-2.986,4.258-6.07,5.011-9.863    c3.626-18.131,5.312-34.607,5.312-51.888c0-13.535-0.828-31.086-7.306-46.818c-4.123-10.021-15.716-34.532-34.329-45.757    c-3.348-2.009-6.643-4.131-9.945-6.245c-11.24-7.208-22.856-14.67-36.309-18.026c-12.608-3.16-24.458-5.575-36.239-7.388    l-0.572-0.09l-0.504,0.286c-0.654,0.376-1.347,0.564-2.054,0.564c-0.881,0-1.769-0.286-2.663-0.858    c-0.617-0.391-1.317-0.73-2.152-1.031l-0.157-0.053l-0.158-0.03c-0.715-0.09-1.182-0.218-1.708-0.429l-0.158-0.067l-0.173-0.022    C265.061,114.46,263.715,114.354,262.18,114.354L262.18,114.354z" fill="#0077BF"/><path d="M272.321,438.213c-10.585,0-20.975-0.746-30.898-2.213c-16.754-2.459-34.6-7.943-51.573-15.844    c-7.252-3.371-14.128-7.637-20.779-11.773c-6.967-4.318-14.174-8.787-21.863-12.293c-8.577-3.898-16.461-9.293-23.458-16.033    c-2.829-2.73-5.131-5.973-7.358-9.119c-2.099-2.963-4.273-6.018-6.921-8.727c-11.345-11.562-22.224-26.744-28.393-39.617    c-8.893-18.605-14.595-35.225-16.913-49.398c-2.573-15.784-0.903-33.999,0.579-50.068l0.098-1.031    c2.618-28.528,5.327-58.042,19.545-84.983c0.956-1.806,1.911-3.626,2.844-5.439c7.223-13.918,14.046-27.062,26.137-37.271    c11.744-9.938,25.263-18.124,42.544-25.768c20.23-8.96,38.053-14.701,56.086-18.071c14.926-2.799,30.199-3.032,43.35-3.032    l10.217,0.03l0.496-0.512c0.843-0.88,1.972-1.324,3.363-1.324c7.719,0.248,14.753,1.647,22.209,3.129    c2.701,0.542,5.417,1.083,8.17,1.573c2.693,0.474,5.417,0.888,8.163,1.316c7.531,1.166,15.325,2.37,22.42,4.732    c6.561,2.189,12.744,5.019,18.74,7.75c4.07,1.866,8.283,3.777,12.624,5.522c1.813,0.715,3.664,1.422,5.515,2.137    c7.14,2.731,14.505,5.552,20.765,9.63c2.25,1.467,4.649,2.972,7.125,4.514c13.745,8.607,29.341,18.357,35.231,32.08    c0.632,1.489,1.144,3.16,1.67,4.928c1.174,3.859,2.378,7.839,5.207,10.766l1.008,1.016c1.775,1.806,3.611,3.664,4.92,5.71    c0.745,1.151,1.264,2.595,1.813,4.13c0.646,1.775,1.316,3.619,2.407,5.101c1.046,1.407,2.4,2.528,3.725,3.604    c1.414,1.182,2.769,2.28,3.543,3.611c1.497,2.558,2.43,5.801,2.49,8.689c0.091,4.672,2.182,8.411,4.213,12.03    c1.204,2.159,2.34,4.198,3.055,6.387c1.783,5.462,2.581,10.736,3.431,16.333c0.497,3.303,1.023,6.711,1.761,10.171    c1.481,6.914,1.128,14.671,0.782,22.164c-0.181,3.852-0.361,7.839-0.286,11.608c0.068,3.032,0.203,6.057,0.347,9.066    c0.285,6.064,0.579,12.338,0.188,18.492c-2.49,38.865-17.868,74.557-44.463,103.221c-12.691,13.678-26.67,24.48-41.544,32.117    c-15.385,7.898-30.401,15.4-44.892,20.344C319.41,434.541,296.088,438.213,272.321,438.213L272.321,438.213z M273.014,56.884    c-0.888,0.79-2.001,1.188-3.325,1.188c-34.969,0-64.001,0.933-92.703,12.775c-24.616,10.134-55.251,22.758-71.833,49.263    c-27.25,43.575-30.921,93.997-30.921,137.58c0,11.684,1.113,21.863,6.575,33.576c1.52,3.242,2.393,6.771,3.325,10.504    c1.317,5.311,2.679,10.803,6.026,15.52c4.567,6.439,9.073,13.121,13.775,20.434c2.535,3.936,5.515,7.523,8.396,10.992    c2.565,3.092,5.214,6.273,7.463,9.629c12.481,18.613,31.191,29.281,49.556,38.031c3.228,1.543,6.139,3.498,9.224,5.574    c2.881,1.934,5.861,3.943,9.111,5.568c9.374,4.664,18.222,8.291,27.062,11.088c18.124,5.734,36.06,8.291,58.148,8.291    c16.514,0,36.834,0,52.354-5.754c35.345-13.113,69.312-27.273,96.366-56.305c25.324-27.168,40.521-68.357,38.708-104.943    c-0.368-7.223-0.571-14.566-0.79-21.661c-0.315-10.676-0.646-21.712-1.459-32.553c-0.64-8.539-3.146-14.716-6.034-21.871    c-0.715-1.745-1.444-3.551-2.167-5.447c-0.79-2.069-1.324-4.175-1.835-6.199c-1.234-4.868-2.4-9.457-6.741-13.151    c-2.724-2.31-4.672-6.086-6.561-9.743c-1.437-2.753-2.911-5.62-4.755-7.9c-3.867-4.8-5.823-9.313-7.907-15.498    c-3.129-9.306-9.494-13.873-16.228-18.703c-1.437-1.03-2.904-2.084-4.394-3.212c-1.144-0.88-2.302-1.776-3.469-2.671    c-6.071-4.688-12.36-9.54-19.267-12.956C338.451,68.424,305.243,58.291,274.21,56.47l-0.685-0.038L273.014,56.884z" fill="#0077BF"/><path d="M328.837,321.225c-0.286,0-0.587-0.023-0.896-0.076c-11.172-1.654-21.968-4.709-29.604-8.365    c-3.107-1.506-10.66-4.289-14.836-4.289c-1.956,0-3.852-1.211-5.868-2.482c-1.625-1.039-3.311-2.105-5.184-2.633    c-5.74-1.617-11.338-4.244-16.755-6.779c-6.485-3.047-13.196-6.199-20.343-7.727c-0.85-0.172-1.806-0.361-2.829-0.557    c-6.342-1.227-15.927-3.084-18.929-8.199c-2.738-4.68-4.138-11.992-5.372-18.455c-0.519-2.746-1.023-5.342-1.587-7.622    l-1.234-4.897c-2.264-8.968-4.619-18.237-6.109-27.197c-1.166-6.997-2.836-13.979-4.461-20.734    c-2.889-12.052-5.883-24.511-5.883-36.984c0-4.01,3.318-4.8,4.341-4.951l0.466-0.068l0.361-0.308    c1.121-0.948,2.58-1.49,4.002-1.49c1.249,0,3.01,0.421,4.341,2.407l2.753-1.835c0.09,0.143,0.196,0.655-0.105,1.159    c-0.293,0.504-0.79,0.669-0.985,0.669c0.233,0,1.339,0.15,5.74,2.069c2.859,1.249,5.658,2.701,8.351,4.108    c2.377,1.241,4.845,2.528,7.35,3.664l7.034,3.198c7.682,3.46,15.626,7.042,23.263,10.833c2.618,1.302,5.694,2.596,8.952,3.973    c11.354,4.785,25.475,10.735,29.439,20.794l3.183,8.072c3.031,7.704,6.063,15.4,9.133,23.112    c2.212,5.537,4.928,10.736,7.554,15.754c2.174,4.167,4.424,8.472,6.335,12.896c1.685,3.918,3.648,7.756,5.544,11.48    c2.483,4.883,5.063,9.93,7.005,15.098c0.895,2.408,1.339,4.824,1.806,7.381c0.421,2.311,0.85,4.703,1.655,7.064    c0.12,0.377,0.391,0.934,0.654,1.461c0.045,0.098,0.098,0.195,0.143,0.293l-0.421,0.361c2.001,2.301,1.399,4.611,0.865,5.785    c-0.934,2.053-2.919,3.49-4.823,3.49l0,0c-0.256,0-0.496-0.029-0.752-0.082l-0.52-0.105l-0.496,0.217    C330.394,321.059,329.634,321.225,328.837,321.225L328.837,321.225z M200.443,172.458c0.195,0.902,0.406,1.806,0.617,2.716    c0.316,1.316,0.632,2.671,0.925,4.107c0.459,2.317,0.64,4.777,0.812,7.17c0.203,2.799,0.399,5.703,1.076,8.517    c0.398,1.64,1.083,3.4,1.745,5.093c1.001,2.55,2.046,5.184,2.106,7.478c0.09,3.408,0.677,10.939,2.212,14.994    c2.129,5.695,3.325,11.789,4.469,17.695c0.971,4.936,1.971,10.037,3.521,15.001c0.369,1.204,0.783,2.468,1.211,3.769    c1.512,4.582,3.22,9.789,3.905,14.52l0.12,0.859l0.775,0.391c4.409,2.197,9.396,3.424,14.212,4.596    c3.784,0.934,7.35,1.807,10.668,3.115c2.874,1.129,5.718,2.527,8.471,3.867c2.258,1.105,4.582,2.25,6.944,3.258    c2.084,0.887,4.492,1.475,7.034,2.1c3.401,0.842,6.922,1.715,9.27,3.271c3.687,2.461,7.869,3.574,11.924,4.65    c3.024,0.805,5.876,1.564,8.539,2.836c7.899,3.791,16.732,6.078,22.766,7.336l2.386,0.496l-0.422-2.4    c-0.166-0.979-0.339-1.941-0.549-2.896c-1.979-8.75-6.41-17.229-10.698-25.43c-1.016-1.934-2.009-3.844-2.957-5.717    c-1.489-2.957-3.145-5.793-4.732-8.523c-2.986-5.117-5.8-9.946-7.666-15.551l-1.316-3.995c-2.964-9.035-6.034-18.387-10.54-26.407    c-0.685-1.204-1.196-2.347-1.693-3.446c-1.399-3.055-2.724-5.943-6.484-8.456c-3.401-2.265-7.268-4.289-11-6.26l-2.031-1.076    c-5.552-2.942-11.383-5.455-17.025-7.877c-3.83-1.64-7.787-3.355-11.586-5.161c-4.1-1.948-8.223-4.107-12.226-6.199    c-5.597-2.926-11.398-5.958-17.289-8.516c-1.903-0.835-3.77-1.385-5.417-1.866l-2.678-0.79L200.443,172.458z" fill="#0077BF"/><path d="M262.676,268.072c-1.422,0-2.783-0.031-4.039-0.053l-1.813-0.031c-0.835-0.014-1.595-0.18-2.25-0.488    l-0.173-0.076l-0.188-0.037c-9.065-1.91-16.86-6.816-20.832-13.121c-2.987-4.717-3.792-10.014-2.393-15.716    c1.437-5.914,7.9-12.557,13.301-16.221c2.152-1.467,5.071-2.212,8.645-2.212c3.762,0,8.223,0.865,12.24,2.37    c6.5,2.445,13.43,9.765,16.371,15.43c3.085,5.958,3.235,14.836,2.054,20.555C281.854,266.98,271.501,268.072,262.676,268.072    L262.676,268.072z M254.912,231.064c-3.197,0-7.892,1.324-12.052,7.576c-2.016,3.024-2.325,6.222-0.918,9.231    c2.438,5.213,9.84,8.975,15.596,9.599l0.286,0.061c0.76,0.023,1.542,0.068,2.332,0.113c1.451,0.082,2.934,0.166,4.4,0.166    c3.055,0,5.417-0.377,7.419-1.182c2.31-0.933,2.023-4.484,1.489-8.366l-0.061-0.459c-0.557-4.431-2.332-6.35-4.566-8.787    l-0.963-1.046C263.82,233.457,259.336,231.064,254.912,231.064L254.912,231.064z" fill="#0077BF"/><path d="M243.793,161.879c-1.535,0-2.942-0.542-3.875-1.489c-0.865-0.873-1.286-2.062-1.256-3.506    c0.068-3.702,0.256-7.463,0.444-11.112c0.233-4.499,0.474-9.148,0.474-13.775c0-3.453,2.641-5.003,5.244-5.003l0.58-0.022    c0.361-0.075,0.737-0.105,1.098-0.105c1.332,0,3.656,0.467,4.289,3.626l0.271,1.339l0.76-0.008    c0.955,0.82,3.077,2.731,3.573,3.416l2.679-1.941c-0.016,0.045,0.105,0.572-0.219,1.113l-1.286,0.745    c-0.136,0.015,0.376,0.21,2.091,1.324l0.302,0.18c1.121,0.557,2.174,1.159,3.183,1.806c1.437,1.039,2.881,2.197,4.303,3.355    l2.362,1.903l0.542-2.836c0.226-2.061,0.398-4.394-0.459-6.139c-1.106-2.257-0.504-4.078,0.203-5.206    c1.076-1.738,3.069-2.904,4.95-2.904c1.647,0,2.965,0.903,3.807,2.603c1.799,3.671,2.024,7.29,1.806,11.609    c0.038,0.677,0.061,1,0.038,1.188c0.053-0.489,0.632-1.204,1.534-1.204c0.632,0,1.091,0.384,1.227,0.617l-3.092,1.204l0.12,0.293    c0.188,0.421,0.369,0.85,0.512,1.287c0.293,1.031,0.526,2.069,0.692,3.205c0.474,3.069-0.347,7.847-2.784,10.69    c-1.196,1.384-2.618,2.091-4.228,2.091l0,0c-0.625,0-1.287-0.105-1.972-0.308c-2.092-0.632-3.1-1.851-4.363-3.401    c-0.896-1.091-1.903-2.332-3.394-3.393c-1.136-0.82-2.227-1.693-3.295-2.558c-2.189-1.746-4.446-3.559-7.154-4.92    c-0.467-0.241-0.971-0.512-1.475-0.782l-2.31-1.256l-0.136,2.618c-0.195,3.777-0.369,7.178-0.421,10.608    C249.089,160.315,246.418,161.879,243.793,161.879L243.793,161.879z" fill="#0077BF"/><path d="M379.251,268.682c-2.611,0-5.252-1.559-5.252-5.025c0-5.605,0-11.414,0.174-17.245    c0.075-0.774,0.075-1.7,0-2.806l-0.121-1.61l-2.34,0.113c-0.662,0.03-1.301,0.06-1.948,0.06c-0.827,0-1.512-0.052-2.159-0.18    c-1.377-0.263-2.754-0.452-4.146-0.609l-2.001-0.226l0.158,2.009c0.09,1.016,0.203,2.024,0.323,3.032    c0.256,2.151,0.496,4.19,0.392,6.191l-0.03,0.481c-0.075,1.415-0.15,2.836-0.128,4.25c0.007,0.715,0.015,1.234,0.037,1.754    l0.03,0.557l0.361,0.428c1.369,1.648,1.053,3.281,0.549,4.363c-0.94,2.025-3.212,3.484-5.394,3.484    c-1.265,0-2.438-0.459-3.491-1.348c-2.889-2.451-2.679-7.914-2.558-11.171c0.105-2.753-0.113-5.402-0.324-7.975    c-0.143-1.61-0.278-3.258-0.338-4.988l-0.053-1.535l-1.543-0.06c-1.805-0.068-3.61-0.173-5.416-0.338l-1.806-0.173v1.821    c0,1.798-0.03,4.161-0.301,6.478c-0.181,1.527-0.392,3.047-0.609,4.567c-0.444,3.152-0.903,6.417-1.016,9.698    c-0.121,3.506-2.837,5.07-5.478,5.07c-1.527,0-2.919-0.533-3.822-1.475c-0.842-0.873-1.241-2.047-1.195-3.482    c0.09-2.604,0.459-5.132,0.842-7.817c0.294-2.024,0.595-4.123,0.768-6.237c0.301-3.814,0.271-7.682,0.248-11.421l-0.015-3.122    c0-3.453,2.633-4.995,5.244-4.995h0.233l0.511-0.045c0.414-0.105,0.843-0.15,1.265-0.15c0.429,0,0.857,0.045,1.294,0.15    c4.717,1.106,9.772,1.219,14.663,1.339c2.986,0.06,5.815,0.128,8.576,0.406c1.572,0.15,3.266,0.195,4.988,0.241    c3.724,0.098,7.576,0.195,10.54,1.504c7.373,3.273,6.492,15.687,5.854,24.745c-0.166,2.303-0.324,4.484-0.324,6.268    C384.494,267.123,381.861,268.682,379.251,268.682L379.251,268.682z" fill="#0077BF"/><path d="M153.55,278.07c-2.655,0-4.672-2.279-5.221-4.439c-0.264-1.045-0.564-3.664,2.4-5.273    c1.738-0.939,3.581-1.662,5.522-2.43c0.602-0.24,1.076-0.438,1.542-0.633l3.754-1.527l-2.791-1.715    c-4.161-2.559-7.862-4.891-10.961-7.636c-1.106-0.993-1.392-2.249-1.437-3.137c-0.068-1.535,0.504-3.13,1.557-4.266    c2.588-2.798,5.665-5.018,9.66-6.959c0.617-0.301,1.361-0.58,2.144-0.858l2.949-1.091l-1.843-1.835    c-2.257-2.234-5.221-4.01-8.103-5.718c-2.581-1.535-5.018-2.987-6.711-4.634c-2.076-2.017-1.647-4.138-1.211-5.221    c0.873-2.137,3.062-3.694,5.207-3.694c1.256,0,2.422,0.511,3.453,1.527c2.58,2.513,5.454,4.506,8.238,6.433    c5.236,3.634,10.187,7.072,12.474,13.474c1.655,4.62-3.785,7.719-10.503,11.022l-2.799,1.369l2.701,1.55    c5.906,3.393,11.157,6.868,10.661,12.12c-0.542,5.793-6.508,8.109-12.263,10.338c-2.114,0.818-4.115,1.594-5.853,2.535    C155.258,277.836,154.4,278.07,153.55,278.07L153.55,278.07z" fill="#0077BF"/><path d="M263.285,357.629c-1.564,0-3.092-0.111-4.393-0.217c-1.182-0.098-2.476-0.504-3.845-0.934    c-1.595-0.496-3.235-1.016-4.891-1.061c-1.715-0.053-3.325-0.549-5.244-1.617c-0.729-0.406-1.226-0.723-1.542-0.971l-0.286-0.219    l-0.346-0.074c-2.362-0.557-4.078-2.709-4.078-5.102v-0.918c0-3.461,2.618-5.004,5.221-5.004c1.234,0,2.423,0.355,3.341,1.01    l0.18,0.127l0.203,0.084c0.752,0.277,1.347,0.586,1.918,1c0.437,0.27,0.7,0.512,0.971,0.744l0.459,0.406l0.602,0.016    c0,0,0.286,0.008,1.106,0.232c3.333,1.189,6.417,1.754,9.592,1.754c1.806,0,3.731-0.174,5.884-0.549    c0.842-0.15,2.166-0.166,3.228-0.189c2.166-0.037,3.604-0.053,3.814-1.662c0.21-1.67-1.348-2.1-3.913-2.807    c-3.332-0.91-6.846-1.451-10.246-1.979c-7.501-1.15-14.581-2.256-20.125-6.922c-2.896-2.438-4.003-5.258-3.28-8.373    c1.316-5.68,8.238-10.998,13.865-12.398c2.31-0.58,4.635-0.85,7.328-0.85c2.595,0,5.206,0.256,7.96,0.512l1.979,0.195    c4.717,0.428,8.215,1.287,11.081,4.229c2.062,2.113,1.58,4.287,1.106,5.4c-0.88,2.107-3.017,3.627-5.078,3.627    c-1.249,0-2.4-0.527-3.423-1.58c-1.189-1.227-3.01-1.391-4.801-1.391l-1.903,0.021c-0.361,0-0.88-0.008-1.219-0.074    c-1.527-0.332-3.551-0.709-5.598-0.709c-1.715,0-3.25,0.256-4.709,0.762c-0.993,0.262-2.069,0.713-3.272,1.398l-2.867,1.617    l3.017,1.34c2.174,0.971,4.371,1.836,7.298,1.857c7.395,0.053,22.593,2.965,25.933,9.744c2.204,4.482,1.994,8.199-0.67,11.705    c-3.378,4.469-7.688,5.484-13.143,6.771l-2.137,0.504C266.896,357.457,265.227,357.629,263.285,357.629L263.285,357.629z" fill="#0077BF"/></g></g></svg>