<?xml version="1.0" ?><!DOCTYPE svg  PUBLIC '-//W3C//DTD SVG 1.1//EN'  'http://www.w3.org/Graphics/SVG/1.1/DTD/svg11.dtd'><svg enable-background="new 0 0 512 512" height="512px" id="Layer_1" version="1.1" viewBox="0 0 512 512" width="512px" xml:space="preserve" xmlns="http://www.w3.org/2000/svg" xmlns:xlink="http://www.w3.org/1999/xlink"><path d="M435.275,435.031c-16.04,2.568-31.708,6.902-47.543,10.444c-7.084,1.574-14.443,2.083-21.582,3.429  c-4.188,0.798-8.536,2.265-12.869,2.865c1.323-0.418,2.517-0.79,3.345-1.102c5.549-2.137,11.319-3.58,17.013-5.269  c9.351-2.782,19.21-4.166,27.496-9.678c2.281-1.513,1.703-5.997-1.543-5.663c-9.335,0.974-18.875,2.243-28.142,3.848  c-10.4,1.809-20.511,4.964-30.895,6.849c-1.368,0.251-2.752,0.502-4.136,0.753c6.438-1.825,12.886-3.695,19.181-5.945  c3.146-1.117,8.741-2.568,8.012-6.918c-0.213-1.292-1.688-2.272-2.927-2.234c-10.392,0.297-20.578,3.3-30.833,4.835  c-5.216,0.775-10.431,1.49-15.639,2.266c1.263-0.654,2.319-1.475,2.882-2.524c0.98-1.832-0.197-4.85-2.63-4.576  c-21.917,2.501-43.521,6.735-65.072,11.281c2.76-1.308,5.352-2.874,7.64-4.872c2.053-1.787,0.373-5.208-2.144-5.192  c-10.088,0.06-20.319,2.173-30.362,3.261c-11.433,1.239-22.782,3.17-34.033,5.564c-3.923,0.844-7.86,1.597-11.798,2.341  c4.196-1.292,8.377-2.606,12.543-3.976c3.77-1.238,2.204-6.545-1.62-5.868c-8.643,1.544-17.492,1.961-26.173,3.353  c-9.244,1.474-18.221,4.295-27.328,6.378c-2.509,0.578-5.01,1.141-7.519,1.695c6.249-2.053,12.445-4.242,18.375-7.077  c2.728-1.315,1.406-5.824-1.536-5.671c-6.12,0.312-11.897,2.447-17.827,3.755c-6.522,1.438-12.969,2.759-19.4,4.409  c0.183-1.642-0.775-3.391-2.904-3.3c-8.043,0.35-16.664,2.966-24.266,5.496c-6.69,2.229-14.816,3.109-20.449,7.557  c-1.764,1.391-0.76,4.652,1.338,5.078c4.326,0.875,8.423-0.638,12.566-1.787c7.207-2.006,14.816-3.321,22.221-4.492  c1.041-0.159,2.075-0.342,3.109-0.539c-2.516,0.904-5.025,1.779-7.572,2.584c-4.386,1.368-8.803,2.396-12.802,4.759  c-1.778,1.05-2.188,4.326,0,5.246c6.12,2.599,12.597-0.654,18.564-2.753c9.769-3.429,20.852-5.047,30.963-7.319  c5.603-1.256,11.182-2.601,16.77-3.916c-9.396,2.92-18.724,6.044-27.876,9.655c-2.995,1.177-2.866,6.112,0.813,5.967  c5.018-0.19,9.753-1.315,14.527-2.843c5.724-1.848,11.274-3.322,17.165-4.6c11.646-2.523,23.3-4.994,35.052-6.917  c12.362-2.022,24.479-4.926,36.945-6.447c5.322-0.653,10.651-1.391,15.965-2.015c-0.357,0.077-0.714,0.16-1.049,0.221  c-6.621,1.209-13.067,3.262-19.704,4.47c-5.839,1.064-11.867,3.962-17.5,5.839c-5.36,1.779-11.122,2.63-16.055,5.412  c-3.178,1.802-0.898,6.119,2.34,5.549c29.435-5.093,58.49-12.283,87.825-17.895c-5.998,1.604-12.003,3.238-17.872,5.216  c-3.14,1.063-6.233,2.212-9.329,3.337c-5.496,1.08-10.969,2.402-15.538,5.01c-3.063,1.748-0.973,6.348,2.342,5.549  c5.268-1.261,10.376-3.032,15.47-4.887c3.93-0.724,7.868-1.346,11.364-2.259c11.22-2.934,22.539-5.488,33.965-7.442  c10.772-1.832,21.415-4.044,32.271-5.558c0.326-0.045,0.662-0.098,0.996-0.151c-15.447,4.378-30.583,9.365-45.817,14.444  c-2.311,0.76-3.261,4.325-0.729,5.55c4.622,2.257,12.513-1.316,17.104-2.464c11.327-2.836,22.821-4.721,34.308-6.812  c10.924-1.983,21.733-4.379,32.574-6.583c-5.443,1.832-10.992,3.291-16.382,5.442c-2.988,1.194-6.53,1.803-8.636,4.433  c-1.521,1.9-0.89,4.158,1.345,5.069c5.717,2.342,11.586,1.415,17.423,0c8.972-2.15,18.018-3.588,27.162-4.743  c8.013-1.018,16.056-3.618,23.909-5.504c8.863-2.113,17.758-4.111,26.759-5.557C440.748,440.275,439.106,434.415,435.275,435.031z" fill="#B3B3B3"/><g><g><path d="M121.18,97.535c-3.611,2.524-4.371,6.271-4.402,10.506c-0.099,10.825-2.09,22.928-4.234,33.494    c-1.9,9.403-4.257,18.724-6.4,28.082c-1.969,8.605-4.227,17.028-4.25,25.877c-0.008,0.76,0.63,1.391,1.39,1.391h1.863    c1.793,0,1.793-2.79,0-2.79h-0.403c0.372-14.823,5.945-29.845,8.795-44.373c1.536-7.853,3.215-15.478,4.067-23.452    c0.471-4.333,0.835-8.682,1.306-13.022c0.343-3.215,0.184-8.408,2.136-11.562c0.814,0.548,2.236,0.198,2.236-1.087v-1.863    C123.285,97.748,122.076,96.912,121.18,97.535z" fill="#1F8AFF"/><path d="M141.895,80.134c0.107-1.801-2.684-1.794-2.79,0c-0.312,5.063-1.862,9.845-1.862,14.946    c0,6.165,0.722,12.9-0.479,18.967c-3.041,15.15-6.196,30.271-10.217,45.186c-3.581,13.318-8.933,26.439-11.03,40.093    c-0.844,5.45-0.564,10.992-1.324,16.473c-0.661,4.767,1.148,10.316-2.592,14.056c-1.277,1.269,0.699,3.246,1.969,1.969    c2.424-2.417,2.926-4.151,3.169-7.595c0.418-6.043,0.896-12.011,1.033-18.062c0.343-14.801,6.691-29.435,10.734-43.529    c4.501-15.736,7.731-31.807,10.939-47.847c1.148-5.754,0.585-11.829,0.585-17.683C140.032,91.309,141.545,85.866,141.895,80.134z" fill="#1F8AFF"/><path d="M165.338,64.543c-3.573,5.139-3.77,11.311-4.287,17.271c-0.76,8.765-3.018,17.568-4.607,26.204    c-3.048,16.686-7.229,33.122-11.183,49.587c-3.907,16.23-6.347,32.947-7.692,49.58c-0.714,8.856-1.156,17.728-1.931,26.583    c-0.669,7.67-1.916,15.417-2.113,23.118c-0.062,1.809,2.737,1.795,2.783,0c0.41-15.599,2.751-31.434,3.854-47.041    c1.232-17.302,3.847-34.611,7.785-51.503c3.657-15.652,7.449-31.229,10.688-46.987c1.52-7.39,2.805-14.847,4.173-22.267    c1.384-7.503,0.425-16.648,4.941-23.14C168.782,64.466,166.357,63.075,165.338,64.543z" fill="#1F8AFF"/><path d="M183.758,74.547c-0.76,8.765-3.314,17.165-3.649,26.052c-0.365,9.548-0.267,18.99-1.277,28.515    c-2.144,20.29-7.693,40.093-12.955,59.751c-4.72,17.628-6.005,35.546-7.222,53.692c-0.265,4.158-0.585,8.324-0.95,12.475    c-0.334,3.831-1.513,7.602-1.756,11.418c-0.296,4.592-0.106,9.235-0.106,13.835c0,4.181-1.467,7.86-1.854,11.951    c-0.175,1.793,2.615,1.777,2.79,0c0.305-3.2,1.559-6.097,1.862-9.305c0.457-4.851,0-9.997,0-14.878    c0-2.941,1.125-5.754,1.491-8.658c0.608-4.728,0.805-9.556,1.148-14.322c1.467-20.624,3.268-40.458,8.635-60.503    c4.675-17.454,9.062-34.946,11.411-52.887c1.239-9.517,1.452-19.035,1.521-28.606c0.075-9.769,2.874-18.914,3.701-28.53    C186.7,72.761,183.91,72.768,183.758,74.547z" fill="#1F8AFF"/><path d="M209.802,74.547c-0.532,10.217-5.823,19.506-7.609,29.548c-1.733,9.753-2.075,19.712-3.238,29.534    c-1.208,10.194-2.676,20.358-5.085,30.339c-2.646,11.007-6.553,21.46-8.667,32.635c-4.15,22-7.168,44.296-10.848,66.396    c-1.626,9.73-3.549,19.209-3.657,29.069c-0.106,8.841-1.824,17.394-1.824,26.227c0,1.794,2.782,1.794,2.782,0    c0-8.042,1.483-15.881,1.779-23.908c0.456-12.217,2.494-23.953,4.501-36.011c3.679-22.044,6.583-44.326,10.969-66.242    c2.037-10.141,5.801-19.72,8.218-29.754c2.273-9.457,3.331-19.134,4.623-28.75c1.384-10.384,1.726-20.86,3.565-31.191    c1.703-9.578,6.766-18.069,7.283-27.891C212.691,72.745,209.901,72.761,209.802,74.547z" fill="#1F8AFF"/><path d="M223.243,99.618c-8.089,8.796-9.366,20.875-10.635,32.286c-1.847,16.473-8.112,31.89-8.385,48.698    c-0.031,1.802,2.759,1.802,2.79,0c0.122-7.207,1.11-14.269,2.532-21.324c1.413-7.054,4.158-14.018,5.116-21.118    c1.688-12.452,1.528-26.759,10.56-36.58C226.436,100.264,224.459,98.288,223.243,99.618z" fill="#1F8AFF"/><path d="M233.992,128.505c-0.533,5.747-3.779,10.445-4.424,16.237c-0.844,7.678-0.373,15.029-2.965,22.464    c-0.592,1.703,2.099,2.432,2.691,0.745c2.084-5.967,2.517-11.852,2.768-18.13c0.311-7.602,4.037-13.95,4.728-21.316    C236.949,126.711,234.159,126.727,233.992,128.505z" fill="#1F8AFF"/><path d="M204.634,200.085c-6.317,7.13-5.025,14.595-6.265,23.398c-1.732,12.178-3.429,24.356-6.477,36.299    c-1.177,4.607-1.398,9.373-2.577,14.032c-1.224,4.896-2.486,9.687-3.14,14.702c-1.285,9.776-0.562,19.934-0.562,29.777    c0,1.794,2.797,1.794,2.797,0c0-8.271-0.152-16.549,0.161-24.812c0.388-10.034,4.355-19.248,5.352-29.146    c1.102-10.97,4.539-22,6.12-32.977c1.383-9.518-0.137-21.742,6.568-29.298C207.796,200.716,205.827,198.732,204.634,200.085z" fill="#1F8AFF"/><path d="M213.528,238.276c-0.457,6.828-2.828,14.034-4.181,20.785c-1.688,8.452-3.382,16.906-5.078,25.367    c-2.958,14.815-7.223,29.838-7.48,45.026c-0.038,1.802,2.751,1.802,2.782,0c0.274-15.706,4.828-31.472,7.899-46.828    c1.695-8.454,3.382-16.906,5.078-25.368c1.24-6.21,3.352-12.642,3.771-18.982C216.439,236.483,213.641,236.499,213.528,238.276z" fill="#1F8AFF"/><path d="M230.274,253.169c-0.555,7.108-4.751,13.987-7.124,20.67c-2.637,7.404-4.066,15.219-5.427,22.928    c-2.524,14.398-9.464,27.033-9.776,41.993c-0.037,1.802,2.752,1.786,2.79,0c0.312-15.463,7.503-28.789,10.118-43.727    c1.345-7.693,3.132-15.242,5.747-22.607c2.289-6.417,5.922-12.354,6.461-19.257C233.202,251.375,230.412,251.383,230.274,253.169z    " fill="#1F8AFF"/><path d="M239.617,276.986c-5.511,29.115-12.847,58.011-13.067,87.818c-0.015,1.801,2.774,1.793,2.79,0    c0.229-29.557,7.511-58.202,12.977-87.073C242.651,275.968,239.96,275.215,239.617,276.986z" fill="#1F8AFF"/><path d="M258.182,284.801c-0.319,6.629-3.391,12.368-4.41,18.814c-1.201,7.596-1.536,15.311-2.584,22.92    c-2.098,15.221-5.808,30.287-6.029,45.711c-0.022,1.802,2.76,1.802,2.791,0c0.228-15.986,4.097-31.669,6.271-47.444    c1.041-7.518,1.39-15.104,2.584-22.592c0.935-5.952,3.87-11.236,4.167-17.409C261.062,282.999,258.272,283.007,258.182,284.801z" fill="#1F8AFF"/><path d="M270.269,299.686c0.016-1.802-2.768-1.802-2.782,0c-0.091,13.98-1.482,27.885-3.132,41.758    c-1.657,13.805,0.106,27.816-2.402,41.598c-0.319,1.756,2.364,2.517,2.69,0.737c2.251-12.346,1.908-25.086,1.916-37.576    c0-7.215,1.764-14.816,2.447-22.015C269.767,316.037,270.223,307.865,270.269,299.686z" fill="#1F8AFF"/><path d="M289.812,295.968c-0.243,28.926-10.802,56.612-11.159,85.583c-0.03,1.803,2.759,1.795,2.789,0    c0.365-28.986,10.917-56.642,11.16-85.583C292.618,294.167,289.827,294.167,289.812,295.968z" fill="#1F8AFF"/><path d="M310.284,290.38c-0.76,16.702-5.26,33.465-5.587,50.235c-0.122,6.293-0.973,12.618-1.49,18.883    c-0.828,9.942-1.642,19.886-2.242,29.845c-0.137,2.243-2.091,12.43,0.707,13.882c1.589,0.828,3.003-1.581,1.406-2.41    c0.828,0.434,0.334-0.273,0.319-1.361c-0.031-1.269,0.007-2.546,0.046-3.823c0.121-3.748,0.372-7.503,0.623-11.243    c0.638-9.587,1.459-19.157,2.258-28.743c0.479-5.755,0.753-11.562,1.513-17.279c1.056-7.921,1.489-15.889,2.204-23.84    c0.73-8.073,2.662-16.062,3.026-24.145C313.15,288.579,310.361,288.587,310.284,290.38z" fill="#1F8AFF"/><path d="M330.749,269.909c-0.084,21.141-1.825,42.222-3.726,63.264c-1.968,21.703-5.435,43.285-5.579,65.125    c-0.015,1.802,2.782,1.794,2.782,0c0.151-21.848,3.702-43.398,5.588-65.125c1.824-21.05,3.648-42.107,3.717-63.264    C333.546,268.114,330.749,268.114,330.749,269.909z" fill="#1F8AFF"/><path d="M344.706,264.337c-0.015-1.803-2.805-1.803-2.798,0c0.092,23.626,3.254,47.254,0.441,70.804    c-1.429,11.951-3.102,23.855-3.847,35.882c-0.761,11.987-1.801,24.189-2.099,36.215c-0.029,0.115-0.075,0.221-0.075,0.366v1.862    c0,1.793,2.767,1.793,2.79,0c0.205-11.943,1.589-23.886,2.036-35.836c0.441-12.027,2.183-23.984,3.665-35.919    C347.884,313.24,344.797,288.906,344.706,264.337z" fill="#1F8AFF"/><path d="M363.308,271.771c-0.014-1.795-2.805-1.795-2.789,0c0.038,11.569,0.531,23.141,0.434,34.702    c-0.1,11.54-1.924,22.814-2.928,34.263c-1.998,22.904-4.843,45.703-4.948,68.729c-0.008,1.793,2.781,1.793,2.789,0    c0.115-23.012,2.882-45.84,4.949-68.729c1.042-11.464,2.714-22.707,2.927-34.263C363.962,294.912,363.346,283.341,363.308,271.771    z" fill="#1F8AFF"/><path d="M383.772,269.909c-0.008-1.795-2.789-1.795-2.789,0c0.09,21.999,1.596,43.673-0.891,65.619    c-1.391,12.278-3.018,24.518-5.39,36.642c-1.673,8.56-3.892,16.747-4.629,25.367c-0.145,0.198-0.251,0.441-0.251,0.761v3.726    c0,1.793,2.752,1.793,2.789,0c0.199-10.901,3.225-21.135,5.3-31.754c2.067-10.619,3.405-21.369,4.667-32.104    C385.27,315.315,383.871,292.844,383.772,269.909z" fill="#1F8AFF"/><path d="M397.729,284.801c-0.008,8.863-0.061,17.721-0.531,26.577c-0.556,10.193-2.631,20.114-3.726,30.225    c-2.029,18.854-5.048,37.781-5.048,56.695c0,1.794,2.79,1.794,2.79,0c0-18.86,3.2-37.888,5.048-56.695    c0.92-9.305,2.858-18.411,3.565-27.754c0.729-9.663,0.691-19.37,0.691-29.048C400.52,282.999,397.729,282.999,397.729,284.801z" fill="#1F8AFF"/><path d="M416.331,295.968c-0.016,5.352-1.862,10.194-1.862,15.387v22.615c0,13.547-3.466,26.631-3.717,40.139    c-0.038,1.803,2.759,1.795,2.797,0c0.244-13.508,3.719-26.592,3.719-40.139v-22.615c0-5.078,1.847-10.141,1.854-15.387    C419.129,294.167,416.34,294.167,416.331,295.968z" fill="#1F8AFF"/><path d="M434.014,314.562c0-1.794-2.798-1.794-2.798,0c0,18.107,0.98,36.338-5.533,53.602    c-0.624,1.68,2.067,2.402,2.697,0.737C434.979,351.401,434.014,332.93,434.014,314.562z" fill="#1F8AFF"/></g><g><path d="M332.749,418.185c-6.522,0-12.825-0.714-18.725-2.129c-25.861-6.164-51.996-16.952-75.584-31.175    c-7.473-4.509-14.057-10.483-20.42-16.261c-3.816-3.459-7.769-7.039-11.904-10.315c-10.894-8.629-20.738-17.006-30.081-25.634    c-22.563-20.822-42.45-47.597-57.532-77.441c-1.627-3.239-3.999-5.74-6.287-8.166c-2.19-2.31-4.25-4.492-5.587-7.176    c-2.737-5.458-5.763-10.726-8.689-15.819l-2.387-4.166c-6.271-11.023-9.936-24.607-11.897-34.057    c-2.615-12.55-5.116-27.04-1.733-40.312c3.489-13.661,9.115-23.368,17.294-36.604c11.153-18.039,29.168-33.501,56.718-48.66    l0.555-0.304l0.219-0.608c0.274-0.813,1.422-3.466,4.365-3.466c0.532,0,1.094,0.091,1.672,0.266    c2.737,0.843,5.565,0.912,8.309,0.973c2.988,0.061,5.801,0.129,8.302,1.156c1.369,0.555,2.751,1.087,4.143,1.634    c3.323,1.285,6.766,2.63,9.92,4.219c11.609,5.846,19.91,12.019,25.383,18.845c6.766,8.454,12.786,17.758,18.61,26.759l3.079,4.751    c0.463,0.708,0.973,1.445,1.505,2.189c1.923,2.752,4.112,5.861,4.241,8.864c0.153,3.611,2.608,16.109,4.896,19.644    c1.026,1.604,1.156,3.224,0.357,4.683c-0.958,1.771-3.117,3.01-5.245,3.01c-1.263,0-3.025-0.426-4.35-2.463    c-2.363-3.649-3.041-8.082-3.762-12.756c-0.73-4.744-1.482-9.655-4.158-13.768c-6.363-9.776-12.452-18.914-18.625-27.93    c-6.781-9.943-16.573-18.046-27.557-22.813c-5.678-2.471-11.122-3.398-16.397-4.295c-2.113-0.357-4.234-0.722-6.371-1.178    l-0.791-0.175l-0.624,0.51c-0.266,0.221-0.562,0.434-0.896,0.616c-22.319,12.148-46.47,27.451-56.459,48.911    c-1.619,3.482-3.505,6.834-5.321,10.065c-4.828,8.575-9.799,17.446-9.83,28.948c-0.038,14.215,2.19,27.671,6.615,39.986    c3.268,9.115,7.419,17.166,11.821,25.688c1.346,2.615,2.706,5.245,4.044,7.928c2.014,4.021,4.721,7.055,7.335,9.989    c1.209,1.361,2.432,2.736,3.618,4.241c1.695,2.121,2.912,4.607,4.204,7.238c1.094,2.227,2.234,4.531,3.695,6.644    c3.275,4.735,6.256,9.79,9.13,14.687c4.303,7.343,8.757,14.931,14.406,21.703l2.378,2.858    c8.195,9.867,15.933,19.173,25.285,27.756c9.973,9.137,18.327,16.336,26.303,22.653c3.847,3.04,7.663,6.644,11.349,10.126    c5.883,5.564,11.974,11.319,18.731,15.394c21.446,12.932,43.634,23.026,65.939,30.005c7.982,2.501,16.572,3.764,25.535,3.764    c16.648,0,34.201-4.304,50.75-12.438c10.271-5.048,19.065-11.594,29.374-21.863c2.151-2.15,4.607-4.22,6.979-6.226    c4.759-4.014,9.669-8.172,13.09-13.585c0.578-0.92,1.338-1.596,2.258-2.021l1.072-0.487l-0.107-1.187    c-0.828-9.205-3.823-31.326-13.767-37.895c-2.333-1.536-4.379-4.266-6.18-6.675l-0.768-1.019    c-3.071-4.037-7.192-6.949-11.184-9.762c-1.397-0.996-2.782-1.976-4.112-2.987c-17.781-13.646-37.652-22-55.958-23.528    c-3.542-0.296-5.275-3.314-5.161-6.157c0.09-2.158,1.27-4.485,4.34-4.485c0.167,0,0.357,0.008,0.541,0.023    c3.123,0.266,6.088,1.018,9.243,1.824c1.65,0.418,3.292,0.837,4.964,1.186c1.764,0.373,3.87,0.662,6.097,0.95    c5.275,0.715,11.267,1.521,14.52,3.695c3.924,2.615,7.83,5.093,11.722,7.548c8.417,5.321,16.36,10.347,24.168,16.558    c12.292,9.783,20.062,18.466,23.763,26.547c4.706,10.277,7.785,23.702,8.651,37.811c0.243,3.932-2.949,4.722-3.93,4.874    l-0.745,0.113l-0.41,0.639c-5.146,8.021-13.35,16.504-20.419,21.11c-3.513,2.28-6.637,5.352-9.655,8.31    c-2.174,2.129-4.424,4.341-6.72,6.15c-4.881,3.846-10.187,6.621-16.116,9.593C374.742,410.378,354.589,418.185,332.749,418.185    L332.749,418.185z" fill="#0077BF"/><path d="M292.115,303.744c-1.764,0-3.505-0.212-5.176-0.638c-13.433-3.436-23.087-8.644-31.274-16.892    c-2.729-2.744-5.542-5.42-8.362-8.111c-6.819-6.499-13.866-13.22-19.522-20.799c-8.765-11.761-17.218-23.277-24.227-34.969    c-4.645-7.746-8.013-21.886-5.412-29.808c3.36-10.239,10.673-19.035,17.742-27.526l2.335-2.82    c6.324-7.655,14.443-13.364,22.911-19.004c0.912-0.608,1.817-0.913,2.707-0.913c2.015,0,3.931,1.657,4.645,4.029    c0.282,0.913,0.95,4.067-2.167,6.143l-0.783,0.524c-7.981,5.314-16.222,10.81-21.505,19.112c-1.392,2.182-3.398,4.477-5.526,6.895    c-5.481,6.256-11.708,13.349-9.73,21.787c0.388,1.665,0.608,3.353,0.843,5.154c0.495,3.725,1.003,7.587,3.109,11.106    c1.217,2.015,2.661,3.854,4.052,5.625c1.345,1.703,2.607,3.307,3.687,5.07c5.154,8.408,9.654,15.128,14.147,21.148    c4.583,6.15,9.958,11.35,15.15,16.375c2.524,2.433,5.131,4.956,7.625,7.557l0.821,0.866c6.363,6.644,13.562,14.186,23.193,16.952    c2.5,0.716,5.062,1.08,7.603,1.08c17.742,0,32.589-17.09,43.544-31.981c1.413-1.924,3.246-2.327,4.53-2.327    c2.242,0,4.53,1.286,5.42,3.049c0.692,1.368,0.486,2.866-0.602,4.334C322.858,290.624,306.119,303.744,292.115,303.744    L292.115,303.744z" fill="#0077BF"/><path d="M129.837,435.038c-0.623,0-1.239-0.015-1.862-0.046c-10.574-0.501-35.349-1.688-42.281-15.104    c-1.171-2.242-0.601-4.053,0.09-5.178c1.064-1.756,3.087-2.94,5.033-2.94c1.186,0,2.828,0.447,3.945,2.614    c5.177,10.013,31.571,10.126,32.689,10.126c1.726,0,3.261-0.062,4.446-0.183c2.289-0.243,5.002-0.76,7.816-1.528l3.816-1.034    l-3.39-2.021c-12.004-7.139-18.709-15.47-19.933-24.79c-1.589-12.103,1.612-31.669,16.944-36.018    c3.178-0.897,6.348-1.36,9.412-1.36c12.094,0,22.524,7.093,28.636,19.453c7.899,16.01,6.811,27.024-3.877,39.271l-0.57,0.608    l-2.219,2.478l3.321,0.304c1.635,0.152,3.299,0.229,4.918,0.229c3.231,0,6.455-0.304,9.594-0.896    c2.136-0.396,4.265-0.783,6.378-1.163c8.811-1.582,17.134-3.079,25.74-5.861c10.034-3.246,27.261-10.544,29.921-22.883    c0.723-3.337,3.337-3.693,4.432-3.693c1.833,0,3.664,0.858,4.782,2.242c0.691,0.858,1.422,2.334,0.965,4.463    c-3.885,18.023-25.732,26.629-41.818,31.525c-15.173,4.629-28.043,6.879-39.325,6.879l0,0c-7.237,0-13.896-0.95-19.803-2.828    l-0.677-0.213l-0.623,0.335C147.649,432.477,138.239,435.038,129.837,435.038L129.837,435.038z M145.262,368.598    c-6.765,0-14.169,4.242-14.671,16.153c-0.631,14.931,8.491,22.175,17.492,27.283c2.166,1.225,4.515,2.365,7.199,3.475l0.837,0.334    l0.737-0.493c2.021-1.369,3.664-2.753,4.88-4.143c9.458-10.842,10.202-20.39,2.494-31.921    C159.956,372.892,152.333,368.598,145.262,368.598L145.262,368.598z" fill="#0077BF"/><path d="M207.446,179.393c-2.646,0-5.307-1.566-5.307-5.078v-0.852l-0.699-0.501    c-0.152-0.106-0.312-0.251-0.54-0.472c-0.662-0.661-1.11-1.436-1.369-2.349c-0.524-1.931-0.814-3.869-1.117-5.938    c-0.396-2.6-0.791-5.291-1.718-7.989c-1.064-3.056-2.843-5.884-4.576-8.613c-1.179-1.854-2.273-3.595-3.154-5.389    c-0.768-1.559-1.445-3.353-2.16-5.253c-1.063-2.797-2.151-5.702-3.641-8.027c-11.472-17.964-29.101-31.016-52.4-38.778    c-3.224-1.072-3.954-3.991-3.611-6.165c0.365-2.205,1.892-4.424,4.493-4.424c0.555,0,1.155,0.106,1.764,0.304    c22.934,7.655,40.222,19.203,52.826,35.303c3.033,3.862,5.177,8.598,7.237,13.182c2.509,5.534,5.093,11.266,9.32,15.675    c4.447,4.652,6.584,14.611,7.055,21.75l0.03,0.57l0.388,0.433c1.787,2,2.478,4.113,2.478,7.534    C212.745,177.827,210.084,179.393,207.446,179.393L207.446,179.393z" fill="#0077BF"/><path d="M401.409,385.922c-2.639,0-5.306-1.566-5.306-5.077c0-20.062-10.18-46.267-23.695-60.938    c-6.926-7.526-15.547-16.893-25.756-22.958c-5.861-3.482-12.133-5.041-18.207-6.531c-2.599-0.645-5.298-1.314-7.936-2.12    c-3.186-0.98-3.962-3.702-3.626-5.93c0.326-2.22,1.931-4.599,4.667-4.599c0.531,0,1.102,0.091,1.68,0.266    c2.904,0.896,5.801,1.657,8.598,2.388c8.431,2.219,16.39,4.302,23.657,9.699c11.654,8.651,20.557,16.968,27.216,25.429    c14.002,17.789,23.413,42.67,23.961,63.386l0.038,0.417l0.008,1.491C406.708,384.355,404.047,385.922,401.409,385.922    L401.409,385.922z" fill="#0077BF"/></g></g></svg>